<svg width="351" height="231" viewBox="0 0 351 231" fill="none" xmlns="http://www.w3.org/2000/svg">
<path d="M285.467 81.8201C285.367 81.5624 285.078 81.4341 284.82 81.5335C284.562 81.6329 284.434 81.9223 284.534 82.1799L285.467 81.8201ZM3.59037 184.287C3.74873 184.513 4.06049 184.568 4.28672 184.41L7.97326 181.829C8.19948 181.671 8.2545 181.359 8.09614 181.133C7.93779 180.906 7.62602 180.851 7.3998 181.01L4.12287 183.304L1.82902 180.027C1.67066 179.801 1.3589 179.745 1.13267 179.904C0.906448 180.062 0.851431 180.374 1.00979 180.6L3.59037 184.287ZM350.758 229.428C350.995 229.286 351.071 228.978 350.928 228.742C350.786 228.505 350.478 228.429 350.242 228.572L350.758 229.428ZM247.957 2.70322C248.069 2.45092 247.956 2.1554 247.703 2.04316L243.592 0.214083C243.339 0.101842 243.044 0.215385 242.932 0.467687C242.819 0.71999 242.933 1.01551 243.185 1.12775L246.84 2.75359L245.214 6.40827C245.102 6.66057 245.215 6.95609 245.468 7.06833C245.72 7.18057 246.016 7.06703 246.128 6.81473L247.957 2.70322ZM121.884 205.514C121.616 205.578 121.45 205.848 121.514 206.116C121.578 206.385 121.848 206.551 122.116 206.486L121.884 205.514ZM179.891 36.6883C179.719 36.4724 179.404 36.4369 179.188 36.6091L175.67 39.4148C175.454 39.5869 175.419 39.9015 175.591 40.1174C175.763 40.3333 176.078 40.3688 176.293 40.1966L179.421 37.7027L181.915 40.83C182.087 41.0459 182.402 41.0813 182.617 40.9092C182.833 40.737 182.869 40.4224 182.697 40.2065L179.891 36.6883ZM4.58434 183.579C4.63478 183.308 4.45558 183.047 4.18408 182.996C3.91259 182.946 3.65161 183.125 3.60116 183.396L4.58434 183.579ZM4.0192 181.353C3.95894 181.623 4.12855 181.89 4.39804 181.95C4.66753 182.01 4.93484 181.841 4.9951 181.571L4.0192 181.353ZM5.73829 178.628C5.81323 178.362 5.65852 178.086 5.39274 178.011C5.12696 177.936 4.85075 178.091 4.77582 178.356L5.73829 178.628ZM5.06207 177.376C4.98227 177.64 5.13189 177.919 5.39626 177.999C5.66062 178.079 5.93961 177.929 6.01941 177.665L5.06207 177.376ZM6.63099 175.765C6.72042 175.504 6.58112 175.219 6.31986 175.13C6.0586 175.04 5.77431 175.18 5.68488 175.441L6.63099 175.765ZM6.76476 172.552C6.66089 172.808 6.7841 173.1 7.03996 173.203C7.29582 173.307 7.58744 173.184 7.69132 172.928L6.76476 172.552ZM8.0807 171.994C8.18933 171.74 8.07158 171.446 7.8177 171.338C7.56382 171.229 7.26995 171.347 7.16132 171.601L8.0807 171.994ZM8.00497 169.726C7.88702 169.976 7.9938 170.274 8.24348 170.392C8.49317 170.51 8.79119 170.403 8.90915 170.153L8.00497 169.726ZM10.2741 167.458C10.4055 167.215 10.3152 166.912 10.0724 166.781C9.82954 166.649 9.52611 166.739 9.39466 166.982L10.2741 167.458ZM9.8904 166.086C9.7546 166.326 9.83942 166.631 10.0799 166.767C10.3203 166.903 10.6253 166.818 10.7611 166.578L9.8904 166.086ZM11.7818 164.843C11.9261 164.608 11.8521 164.3 11.6167 164.156C11.3812 164.012 11.0734 164.085 10.9291 164.321L11.7818 164.843ZM12.6049 161.74C12.4485 161.968 12.5064 162.279 12.734 162.435C12.9616 162.592 13.2729 162.534 13.4292 162.306L12.6049 161.74ZM14.0089 161.477C14.169 161.252 14.1165 160.94 13.8916 160.78C13.6666 160.62 13.3544 160.672 13.1943 160.897L14.0089 161.477ZM14.4184 159.237C14.2508 159.457 14.2929 159.771 14.5124 159.938C14.7318 160.106 15.0456 160.064 15.2132 159.844L14.4184 159.237ZM17.1009 157.492C17.2788 157.281 17.2518 156.965 17.0405 156.787C16.8293 156.609 16.5139 156.636 16.336 156.848L17.1009 157.492ZM16.9986 156.073C16.8175 156.281 16.8397 156.597 17.0482 156.778C17.2566 156.959 17.5724 156.937 17.7535 156.729L16.9986 156.073ZM19.0997 155.226C19.287 155.023 19.2743 154.707 19.0714 154.519C18.8685 154.332 18.5522 154.345 18.3649 154.548L19.0997 155.226ZM20.5147 152.319C20.3188 152.513 20.3176 152.83 20.5122 153.026C20.7068 153.222 21.0234 153.223 21.2193 153.029L20.5147 152.319ZM21.9522 152.311C22.1508 152.119 22.1564 151.803 21.9646 151.604C21.7728 151.405 21.4563 151.4 21.2576 151.592L21.9522 152.311ZM22.7339 150.204C22.5302 150.391 22.5162 150.707 22.7026 150.911C22.8891 151.114 23.2053 151.128 23.409 150.942L22.7339 150.204ZM25.6726 148.949C25.8833 148.77 25.9093 148.455 25.7307 148.244C25.5522 148.033 25.2367 148.007 25.026 148.186L25.6726 148.949ZM25.8131 147.527C25.6003 147.703 25.5704 148.018 25.7463 148.231C25.9223 148.444 26.2374 148.474 26.4503 148.298L25.8131 147.527ZM28.0396 147.016C28.2566 146.845 28.2941 146.531 28.1233 146.314C27.9525 146.097 27.6381 146.059 27.4212 146.23L28.0396 147.016ZM29.8757 144.365C29.6531 144.529 29.605 144.842 29.7683 145.064C29.9317 145.287 30.2446 145.335 30.4672 145.172L29.8757 144.365ZM31.2748 144.586C31.4991 144.425 31.5505 144.112 31.3895 143.888C31.2286 143.664 30.9162 143.612 30.6918 143.773L31.2748 144.586ZM32.3532 142.607C32.1255 142.764 32.0677 143.075 32.224 143.302C32.3803 143.53 32.6916 143.588 32.9192 143.432L32.3532 142.607ZM35.458 141.744C35.6902 141.595 35.7572 141.285 35.6077 141.053C35.4583 140.821 35.1489 140.754 34.9167 140.903L35.458 141.744ZM35.7898 140.347C35.5562 140.494 35.4862 140.803 35.6334 141.037C35.7807 141.27 36.0894 141.34 36.3231 141.193L35.7898 140.347ZM38.0787 140.109C38.315 139.966 38.3907 139.659 38.2478 139.423C38.1049 139.186 37.7975 139.111 37.5612 139.253L38.0787 140.109ZM40.1647 137.725C39.9248 137.862 39.8413 138.167 39.9781 138.407C40.1149 138.647 40.4203 138.73 40.6601 138.593L40.1647 137.725ZM41.5367 138.098C41.7777 137.963 41.8638 137.659 41.729 137.418C41.5941 137.177 41.2895 137.091 41.0485 137.226L41.5367 138.098ZM42.8394 136.242C42.5963 136.373 42.5054 136.677 42.6363 136.92C42.7673 137.163 43.0705 137.254 43.3136 137.123L42.8394 136.242ZM46.0368 135.697C46.2829 135.571 46.3808 135.27 46.2555 135.024C46.1302 134.778 45.8291 134.68 45.583 134.805L46.0368 135.697ZM46.5125 134.336C46.2655 134.46 46.1654 134.76 46.2889 135.007C46.4124 135.254 46.7127 135.354 46.9597 135.231L46.5125 134.336ZM48.7652 134.344C49.0139 134.224 49.1182 133.925 48.9981 133.676C48.8781 133.428 48.5792 133.323 48.3305 133.443L48.7652 134.344ZM51.0774 132.151C50.8264 132.266 50.7162 132.563 50.8312 132.814C50.9463 133.065 51.2431 133.176 51.4941 133.06L51.0774 132.151ZM52.4166 132.641C52.6684 132.528 52.7805 132.232 52.6671 131.98C52.5536 131.728 52.2576 131.616 52.0058 131.729L52.4166 132.641ZM53.8812 130.899C53.628 131.009 53.5122 131.304 53.6225 131.557C53.7328 131.81 54.0274 131.926 54.2806 131.815L53.8812 130.899ZM57.1226 130.608C57.3777 130.502 57.4988 130.21 57.3931 129.955C57.2874 129.699 56.9949 129.578 56.7398 129.684L57.1226 130.608ZM57.6846 129.296C57.4289 129.4 57.3061 129.692 57.4104 129.947C57.5147 130.203 57.8065 130.326 58.0622 130.222L57.6846 129.296ZM59.9203 129.476C60.1771 129.374 60.303 129.084 60.2015 128.827C60.1001 128.57 59.8096 128.444 59.5528 128.546L59.9203 129.476ZM62.3939 127.449C62.1356 127.547 62.0051 127.835 62.1025 128.094C62.1999 128.352 62.4884 128.482 62.7468 128.385L62.3939 127.449ZM63.6992 128.029C63.958 127.933 64.09 127.645 63.9939 127.386C63.8978 127.127 63.61 126.995 63.3511 127.091L63.6992 128.029ZM65.2802 126.386C65.0204 126.479 64.8856 126.766 64.9791 127.026C65.0726 127.286 65.3591 127.42 65.6189 127.327L65.2802 126.386ZM68.5334 126.301C68.7945 126.211 68.9334 125.927 68.8436 125.666C68.7537 125.405 68.4692 125.266 68.2081 125.356L68.5334 126.301ZM69.1591 125.031C68.8976 125.119 68.7574 125.403 68.8461 125.665C68.9348 125.926 69.2186 126.067 69.4802 125.978L69.1591 125.031ZM71.3865 125.341C71.6488 125.255 71.7914 124.972 71.705 124.71C71.6186 124.447 71.336 124.305 71.0737 124.391L71.3865 125.341ZM73.9763 123.456C73.7129 123.539 73.5668 123.819 73.6499 124.083C73.7329 124.346 74.0138 124.492 74.2771 124.409L73.9763 123.456ZM75.2487 124.105C75.5124 124.023 75.6597 123.743 75.5777 123.479C75.4957 123.215 75.2155 123.068 74.9518 123.15L75.2487 124.105ZM76.9143 122.548C76.65 122.628 76.5004 122.907 76.5803 123.172C76.6602 123.436 76.9393 123.585 77.2036 123.506L76.9143 122.548ZM80.1597 122.631C80.425 122.554 80.5777 122.277 80.5008 122.011C80.424 121.746 80.1466 121.593 79.8814 121.67L80.1597 122.631ZM80.8495 121.392C80.584 121.468 80.4303 121.744 80.5062 122.01C80.5821 122.275 80.8588 122.429 81.1243 122.353L80.8495 121.392ZM83.0635 121.806C83.3296 121.732 83.4852 121.456 83.4112 121.19C83.3372 120.924 83.0615 120.769 82.7955 120.843L83.0635 121.806ZM85.7384 120.04C85.4716 120.112 85.3131 120.386 85.3844 120.652C85.4557 120.919 85.7298 121.078 85.9966 121.006L85.7384 120.04ZM86.9805 120.745C87.2475 120.675 87.4069 120.401 87.3365 120.134C87.2661 119.867 86.9925 119.708 86.7255 119.778L86.9805 120.745ZM88.7087 119.262C88.4412 119.331 88.2801 119.603 88.3488 119.871C88.4174 120.138 88.6899 120.299 88.9574 120.231L88.7087 119.262ZM91.9445 119.479C92.2126 119.412 92.3763 119.141 92.3101 118.873C92.2439 118.605 91.973 118.442 91.7049 118.508L91.9445 119.479ZM92.6874 118.267C92.4191 118.332 92.2546 118.603 92.3199 118.871C92.3853 119.139 92.6558 119.304 92.9241 119.238L92.6874 118.267ZM94.8865 118.766C95.1552 118.702 95.3212 118.433 95.2574 118.164C95.1936 117.895 94.924 117.729 94.6554 117.793L94.8865 118.766ZM97.6255 117.101C97.3563 117.163 97.188 117.431 97.2496 117.7C97.3111 117.969 97.5793 118.137 97.8485 118.076L97.6255 117.101ZM98.8405 117.85C99.1099 117.789 99.2789 117.522 99.2181 117.252C99.1572 116.983 98.8896 116.814 98.6202 116.875L98.8405 117.85ZM100.616 116.43C100.347 116.489 100.176 116.756 100.235 117.026C100.295 117.295 100.562 117.466 100.831 117.406L100.616 116.43ZM103.834 116.757C104.104 116.7 104.276 116.435 104.219 116.164C104.162 115.894 103.896 115.722 103.626 115.779L103.834 116.757ZM104.627 115.568C104.357 115.625 104.184 115.89 104.24 116.16C104.297 116.43 104.562 116.603 104.832 116.547L104.627 115.568ZM106.812 116.137C107.083 116.082 107.257 115.817 107.202 115.547C107.146 115.276 106.882 115.102 106.612 115.157L106.812 116.137ZM109.601 114.556C109.33 114.61 109.154 114.873 109.208 115.144C109.261 115.415 109.524 115.591 109.795 115.538L109.601 114.556ZM110.793 115.342C111.064 115.289 111.241 115.026 111.188 114.755C111.135 114.484 110.872 114.308 110.601 114.36L110.793 115.342ZM112.606 113.974C112.335 114.026 112.157 114.288 112.208 114.559C112.26 114.83 112.522 115.008 112.793 114.957L112.606 113.974ZM115.804 114.393C116.076 114.343 116.256 114.083 116.206 113.811C116.156 113.54 115.895 113.36 115.624 113.41L115.804 114.393ZM116.632 113.225C116.36 113.275 116.18 113.535 116.23 113.807C116.279 114.078 116.539 114.259 116.811 114.209L116.632 113.225ZM118.81 113.85C119.082 113.802 119.263 113.543 119.215 113.271C119.166 112.999 118.907 112.818 118.635 112.866L118.81 113.85ZM121.641 112.342C121.368 112.388 121.186 112.647 121.232 112.919C121.279 113.191 121.538 113.374 121.81 113.327L121.641 112.342ZM122.812 113.156C123.084 113.11 123.267 112.852 123.221 112.58C123.175 112.307 122.917 112.124 122.645 112.17L122.812 113.156ZM124.655 111.833C124.383 111.878 124.199 112.136 124.244 112.408C124.289 112.681 124.547 112.865 124.819 112.82L124.655 111.833ZM127.837 112.328C128.109 112.284 128.295 112.028 128.251 111.755C128.207 111.482 127.951 111.297 127.678 111.34L127.837 112.328ZM128.687 111.179C128.415 111.223 128.229 111.479 128.272 111.752C128.315 112.024 128.571 112.21 128.844 112.167L128.687 111.179ZM130.858 111.851C131.131 111.809 131.318 111.553 131.275 111.281C131.233 111.008 130.977 110.821 130.705 110.863L130.858 111.851ZM133.725 110.402C133.452 110.443 133.263 110.698 133.304 110.971C133.345 111.244 133.6 111.432 133.873 111.391L133.725 110.402ZM134.879 111.241C135.152 111.2 135.341 110.946 135.3 110.673C135.26 110.4 135.005 110.211 134.732 110.252L134.879 111.241ZM136.749 109.955C136.476 109.995 136.286 110.249 136.326 110.522C136.366 110.795 136.619 110.985 136.893 110.945L136.749 109.955ZM139.916 110.512C140.189 110.473 140.379 110.221 140.341 109.947C140.302 109.674 140.049 109.483 139.776 109.522L139.916 110.512ZM140.785 109.38C140.512 109.418 140.321 109.671 140.359 109.944C140.397 110.218 140.65 110.409 140.924 110.371L140.785 109.38ZM142.94 110.092C143.214 110.055 143.405 109.803 143.368 109.529C143.331 109.255 143.078 109.064 142.805 109.101L142.94 110.092ZM145.839 108.693C145.565 108.729 145.373 108.98 145.409 109.254C145.445 109.528 145.697 109.72 145.97 109.684L145.839 108.693ZM146.981 109.551C147.254 109.515 147.447 109.264 147.411 108.99C147.375 108.716 147.124 108.523 146.85 108.559L146.981 109.551ZM148.873 108.296C148.599 108.332 148.406 108.582 148.441 108.856C148.476 109.13 148.727 109.323 149.001 109.288L148.873 108.296ZM152.029 108.904C152.303 108.87 152.497 108.62 152.463 108.346C152.429 108.072 152.179 107.877 151.905 107.912L152.029 108.904ZM152.915 107.786C152.641 107.82 152.446 108.07 152.48 108.344C152.514 108.618 152.764 108.812 153.038 108.778L152.915 107.786ZM155.055 108.531C155.329 108.497 155.524 108.248 155.49 107.974C155.457 107.7 155.208 107.505 154.934 107.538L155.055 108.531ZM157.973 107.173C157.699 107.206 157.503 107.454 157.535 107.729C157.568 108.003 157.816 108.199 158.091 108.166L157.973 107.173ZM159.105 108.047C159.38 108.015 159.576 107.766 159.544 107.492C159.511 107.218 159.263 107.022 158.989 107.054L159.105 108.047ZM161.018 106.818C160.744 106.849 160.547 107.097 160.579 107.372C160.61 107.646 160.858 107.843 161.133 107.811L161.018 106.818ZM164.168 107.466C164.442 107.435 164.64 107.188 164.609 106.913C164.578 106.639 164.33 106.441 164.056 106.472L164.168 107.466ZM165.067 106.359C164.792 106.39 164.595 106.637 164.625 106.911C164.656 107.186 164.903 107.384 165.178 107.353L165.067 106.359ZM167.195 107.13C167.469 107.1 167.667 106.853 167.637 106.579C167.607 106.304 167.36 106.106 167.086 106.136L167.195 107.13ZM170.119 105.807C169.844 105.837 169.646 106.083 169.675 106.358C169.705 106.632 169.951 106.831 170.226 106.802L170.119 105.807ZM171.245 106.693C171.52 106.664 171.719 106.417 171.69 106.143C171.66 105.868 171.414 105.669 171.14 105.699L171.245 106.693ZM173.177 105.484C172.902 105.512 172.703 105.758 172.731 106.033C172.76 106.308 173.006 106.507 173.281 106.478L173.177 105.484ZM176.323 106.163C176.598 106.135 176.798 105.889 176.77 105.615C176.742 105.34 176.496 105.14 176.221 105.168L176.323 106.163ZM177.233 105.065C176.959 105.093 176.759 105.338 176.787 105.613C176.815 105.888 177.06 106.088 177.335 106.06L177.233 105.065ZM179.352 105.855C179.627 105.828 179.827 105.583 179.8 105.308C179.772 105.033 179.527 104.833 179.252 104.86L179.352 105.855ZM182.272 104.56C181.998 104.587 181.797 104.831 181.824 105.106C181.851 105.381 182.096 105.582 182.371 105.555L182.272 104.56ZM183.396 105.454C183.671 105.427 183.872 105.182 183.845 104.907C183.818 104.633 183.573 104.432 183.298 104.459L183.396 105.454ZM185.343 104.259C185.069 104.286 184.867 104.53 184.894 104.805C184.921 105.08 185.165 105.281 185.44 105.254L185.343 104.259ZM188.491 104.96C188.766 104.934 188.967 104.69 188.941 104.415C188.915 104.14 188.67 103.938 188.396 103.965L188.491 104.96ZM189.408 103.868C189.134 103.894 188.932 104.138 188.958 104.413C188.984 104.688 189.228 104.89 189.503 104.864L189.408 103.868ZM191.521 104.672C191.796 104.646 191.998 104.402 191.972 104.127C191.946 103.853 191.702 103.651 191.427 103.677L191.521 104.672ZM194.437 103.394C194.162 103.42 193.96 103.663 193.986 103.938C194.012 104.213 194.255 104.415 194.53 104.39L194.437 103.394ZM195.556 104.294C195.831 104.268 196.033 104.025 196.007 103.75C195.981 103.475 195.738 103.273 195.463 103.298L195.556 104.294ZM197.516 103.108C197.241 103.133 197.039 103.377 197.065 103.652C197.09 103.927 197.334 104.129 197.608 104.103L197.516 103.108ZM200.666 103.821C200.941 103.796 201.143 103.553 201.118 103.278C201.093 103.003 200.849 102.8 200.574 102.825L200.666 103.821ZM201.587 102.732C201.312 102.758 201.11 103.001 201.135 103.276C201.16 103.551 201.404 103.753 201.679 103.728L201.587 102.732ZM203.695 103.543C203.97 103.518 204.173 103.275 204.148 103C204.123 102.725 203.879 102.522 203.604 102.547L203.695 103.543ZM206.605 102.273C206.33 102.298 206.127 102.541 206.152 102.816C206.177 103.091 206.421 103.294 206.696 103.269L206.605 102.273ZM207.726 103.174C208.001 103.149 208.204 102.906 208.178 102.631C208.153 102.356 207.91 102.153 207.635 102.178L207.726 103.174ZM209.694 101.99C209.419 102.015 209.217 102.258 209.242 102.533C209.267 102.808 209.511 103.011 209.786 102.986L209.694 101.99ZM212.845 102.705C213.12 102.679 213.322 102.436 213.297 102.161C213.272 101.886 213.028 101.684 212.753 101.709L212.845 102.705ZM213.765 101.616C213.49 101.641 213.287 101.885 213.313 102.159C213.338 102.434 213.582 102.637 213.857 102.611L213.765 101.616ZM215.867 102.425C216.142 102.4 216.345 102.156 216.319 101.881C216.293 101.606 216.05 101.404 215.775 101.43L215.867 102.425ZM218.779 101.15C218.504 101.175 218.302 101.419 218.328 101.694C218.354 101.969 218.597 102.171 218.872 102.145L218.779 101.15ZM219.91 102.048C220.185 102.022 220.387 101.778 220.361 101.503C220.335 101.228 220.091 101.026 219.816 101.052L219.91 102.048ZM221.876 100.857C221.601 100.883 221.399 101.127 221.426 101.402C221.452 101.677 221.696 101.879 221.971 101.853L221.876 100.857ZM225.022 101.559C225.297 101.533 225.498 101.288 225.471 101.013C225.444 100.739 225.2 100.537 224.925 100.564L225.022 101.559ZM225.931 100.466C225.656 100.493 225.455 100.738 225.482 101.012C225.508 101.287 225.753 101.488 226.028 101.461L225.931 100.466ZM228.023 101.265C228.298 101.238 228.499 100.993 228.471 100.718C228.444 100.443 228.199 100.243 227.925 100.27L228.023 101.265ZM230.97 99.964C230.695 99.9919 230.495 100.237 230.523 100.512C230.551 100.787 230.797 100.987 231.071 100.959L230.97 99.964ZM232.106 100.853C232.381 100.825 232.581 100.579 232.553 100.304C232.524 100.03 232.279 99.8298 232.004 99.8581L232.106 100.853ZM234.051 99.6452C233.776 99.6741 233.577 99.9201 233.606 100.195C233.635 100.469 233.881 100.669 234.156 100.64L234.051 99.6452ZM237.176 100.316C237.451 100.286 237.649 100.04 237.619 99.7652C237.589 99.4907 237.343 99.2924 237.068 99.3223L237.176 100.316ZM238.059 99.2136C237.785 99.2439 237.587 99.491 237.617 99.7654C237.647 100.04 237.894 100.238 238.169 100.208L238.059 99.2136ZM240.156 99.9852C240.43 99.9541 240.627 99.7064 240.596 99.432C240.565 99.1577 240.317 98.9605 240.043 98.9916L240.156 99.9852ZM243.155 98.6301C242.88 98.6628 242.685 98.9115 242.717 99.1857C242.75 99.4599 242.999 99.6558 243.273 99.6231L243.155 98.6301ZM244.294 99.5006C244.568 99.4674 244.763 99.2183 244.73 98.9442C244.697 98.67 244.448 98.4747 244.173 98.5079L244.294 99.5006ZM246.182 98.2604C245.908 98.2948 245.714 98.5447 245.748 98.8187C245.783 99.0927 246.033 99.287 246.307 99.2527L246.182 98.2604ZM249.254 98.8726C249.528 98.8363 249.72 98.5849 249.684 98.3111C249.648 98.0374 249.396 97.8449 249.122 97.8813L249.254 98.8726ZM250.165 97.7414C249.891 97.7785 249.699 98.0305 249.737 98.3041C249.774 98.5777 250.026 98.7695 250.299 98.7324L250.165 97.7414ZM252.379 98.4438C252.653 98.405 252.843 98.1519 252.804 97.8785C252.765 97.6051 252.512 97.4149 252.239 97.4537L252.379 98.4438ZM255.254 97.01C254.981 97.0517 254.794 97.3067 254.835 97.5797C254.877 97.8527 255.132 98.0402 255.405 97.9985L255.254 97.01ZM256.388 97.8465C256.661 97.8038 256.847 97.548 256.804 97.2752C256.762 97.0024 256.506 96.8158 256.233 96.8586L256.388 97.8465ZM258.183 96.5449C257.911 96.5899 257.726 96.8473 257.771 97.1197C257.816 97.3922 258.074 97.5765 258.346 97.5315L258.183 96.5449ZM261.467 96.9911C261.739 96.9417 261.919 96.6815 261.87 96.4098C261.821 96.1381 261.56 95.9578 261.289 96.0072L261.467 96.9911ZM262.288 95.8226C262.017 95.8736 261.838 96.1349 261.889 96.4063C261.94 96.6777 262.201 96.8564 262.473 96.8055L262.288 95.8226ZM264.43 96.4254C264.7 96.371 264.876 96.1075 264.821 95.8367C264.767 95.566 264.503 95.3906 264.233 95.445L264.43 96.4254ZM267.233 94.806C266.963 94.8669 266.794 95.1346 266.855 95.404C266.916 95.6733 267.184 95.8423 267.453 95.7814L267.233 94.806ZM268.478 95.5445C268.747 95.481 268.913 95.2116 268.85 94.9429C268.786 94.6742 268.517 94.5078 268.248 94.5713L268.478 95.5445ZM270.201 94.0885C269.934 94.1578 269.773 94.4306 269.842 94.6979C269.911 94.9652 270.184 95.1258 270.452 95.0566L270.201 94.0885ZM273.383 94.2364C273.648 94.1563 273.797 93.8772 273.717 93.6129C273.637 93.3486 273.358 93.1993 273.093 93.2794L273.383 94.2364ZM274.101 92.9645C273.838 93.0493 273.694 93.3311 273.778 93.5939C273.863 93.8567 274.145 94.001 274.408 93.9162L274.101 92.9645ZM276.338 93.2516C276.598 93.1562 276.73 92.8688 276.635 92.6096C276.539 92.3505 276.252 92.2178 275.993 92.3132L276.338 93.2516ZM278.781 91.1563C278.532 91.274 278.424 91.572 278.542 91.8217C278.66 92.0715 278.958 92.1786 279.208 92.0608L278.781 91.1563ZM280.153 91.5923C280.398 91.4646 280.493 91.1625 280.365 90.9177C280.237 90.6729 279.935 90.578 279.69 90.7058L280.153 91.5923ZM281.299 89.7695C281.068 89.9206 281.003 90.2305 281.154 90.4616C281.306 90.6927 281.616 90.7575 281.847 90.6064L281.299 89.7695ZM284.325 88.5115C284.507 88.3032 284.485 87.9874 284.277 87.806C284.068 87.6247 283.753 87.6466 283.571 87.8548L284.325 88.5115ZM284.133 87.1165C283.982 87.3476 284.047 87.6575 284.278 87.8087C284.509 87.96 284.819 87.8953 284.97 87.6643L284.133 87.1165ZM285.844 85.6279C285.903 85.3582 285.733 85.0913 285.464 85.0317C285.194 84.9721 284.927 85.1423 284.867 85.412L285.844 85.6279ZM284.707 82.6783C284.788 82.9423 285.068 83.0904 285.331 83.0092C285.595 82.928 285.744 82.6482 285.662 82.3843L284.707 82.6783ZM246.835 2.22228C246.578 2.32352 246.452 2.61386 246.553 2.87077C246.654 3.12769 246.945 3.25389 247.202 3.15264L246.835 2.22228ZM245.335 3.92571C245.588 3.81555 245.704 3.52098 245.594 3.26776C245.484 3.01454 245.189 2.89856 244.936 3.00872L245.335 3.92571ZM242.22 4.27822C241.973 4.40201 241.874 4.70247 241.997 4.94931C242.121 5.19615 242.422 5.29589 242.669 5.1721L242.22 4.27822ZM241.815 5.6103C242.059 5.48191 242.153 5.17964 242.025 4.93516C241.897 4.69068 241.594 4.59658 241.35 4.72497L241.815 5.6103ZM239.661 5.65333C239.421 5.79097 239.339 6.09662 239.477 6.33601C239.614 6.57541 239.92 6.65789 240.159 6.52025L239.661 5.65333ZM237.644 8.07309C237.874 7.92056 237.937 7.6103 237.785 7.38011C237.632 7.14991 237.322 7.08695 237.092 7.23948L237.644 8.07309ZM236.258 7.80515C236.031 7.96272 235.975 8.27429 236.133 8.50107C236.29 8.72784 236.602 8.78394 236.829 8.62637L236.258 7.80515ZM235.258 9.77073C235.477 9.60317 235.519 9.2894 235.352 9.06991C235.184 8.85042 234.87 8.80832 234.651 8.97589L235.258 9.77073ZM232.388 10.8286C232.181 11.0108 232.16 11.3267 232.342 11.5342C232.525 11.7417 232.841 11.7622 233.048 11.5799L232.388 10.8286ZM232.315 12.2394C232.518 12.0522 232.531 11.7358 232.344 11.5329C232.157 11.3299 231.84 11.3171 231.637 11.5043L232.315 12.2394ZM230.19 12.9066C229.997 13.1036 229.999 13.4202 230.197 13.6137C230.394 13.8072 230.71 13.8043 230.904 13.6073L230.19 12.9066ZM228.944 15.7569C229.122 15.5461 229.096 15.2306 228.885 15.0523C228.674 14.874 228.358 14.9004 228.18 15.1112L228.944 15.7569ZM227.552 15.8724C227.379 16.0877 227.414 16.4024 227.629 16.5754C227.844 16.7484 228.159 16.7142 228.332 16.499L227.552 15.8724ZM227.159 18.0351C227.321 17.8115 227.271 17.4989 227.047 17.3368C226.824 17.1748 226.511 17.2246 226.349 17.4482L227.159 18.0351ZM224.685 19.9353C224.54 20.1704 224.613 20.4784 224.848 20.6233C225.083 20.7682 225.391 20.6951 225.536 20.4601L224.685 19.9353ZM225.036 21.2934C225.175 21.0548 225.095 20.7487 224.856 20.6096C224.618 20.4705 224.312 20.5511 224.172 20.7897L225.036 21.2934ZM223.211 22.5354C223.083 22.7804 223.179 23.0823 223.424 23.2096C223.669 23.337 223.971 23.2417 224.098 22.9967L223.211 22.5354ZM222.851 25.6169C222.961 25.3636 222.845 25.0691 222.591 24.9592C222.338 24.8492 222.043 24.9655 221.934 25.2188L222.851 25.6169ZM221.549 26.1325C221.445 26.3883 221.568 26.68 221.824 26.7842C222.079 26.8884 222.371 26.7655 222.475 26.5098L221.549 26.1325ZM221.781 28.3289C221.874 28.0688 221.738 27.7827 221.478 27.69C221.218 27.5972 220.932 27.7328 220.839 27.9929L221.781 28.3289ZM219.92 30.8564C219.844 31.1218 219.998 31.3987 220.263 31.4748C220.529 31.5509 220.806 31.3973 220.882 31.1319L219.92 30.8564ZM220.627 32.0544C220.698 31.7875 220.539 31.5137 220.272 31.4429C220.005 31.3721 219.731 31.531 219.661 31.7979L220.627 32.0544ZM219.193 33.7089C219.132 33.9784 219.302 34.2459 219.571 34.3064C219.841 34.3669 220.108 34.1975 220.169 33.9281L219.193 33.7089ZM219.605 36.8085C219.651 36.5361 219.467 36.2783 219.195 36.2327C218.922 36.187 218.665 36.3708 218.619 36.6431L219.605 36.8085ZM218.461 37.6387C218.42 37.9118 218.608 38.1663 218.882 38.2072C219.155 38.248 219.409 38.0597 219.45 37.7866L218.461 37.6387ZM219.194 39.7197C219.226 39.4454 219.029 39.1973 218.755 39.1655C218.48 39.1338 218.232 39.3304 218.2 39.6047L219.194 39.7197ZM217.93 42.534C217.911 42.8095 218.119 43.0483 218.395 43.0674C218.67 43.0865 218.909 42.8786 218.928 42.6031L217.93 42.534ZM218.868 43.5792C218.883 43.3035 218.671 43.0678 218.396 43.0528C218.12 43.0377 217.884 43.2491 217.869 43.5248L218.868 43.5792ZM217.789 45.5272C217.782 45.8033 218 46.0329 218.276 46.04C218.552 46.0471 218.782 45.8291 218.789 45.5531L217.789 45.5272ZM218.772 48.4905C218.768 48.2144 218.541 47.9937 218.265 47.9975C217.989 48.0013 217.768 48.2283 217.772 48.5044L218.772 48.4905ZM217.792 49.478C217.799 49.754 218.029 49.972 218.305 49.9647C218.581 49.9575 218.799 49.7279 218.791 49.4518L217.792 49.478ZM218.866 51.392C218.852 51.1162 218.617 50.9038 218.341 50.9176C218.065 50.9315 217.853 51.1662 217.867 51.442L218.866 51.392ZM218.068 54.4287C218.091 54.7039 218.333 54.9081 218.608 54.8849C218.884 54.8617 219.088 54.6199 219.065 54.3447L218.068 54.4287ZM219.154 55.3398C219.128 55.0649 218.884 54.8633 218.609 54.8895C218.334 54.9157 218.132 55.1598 218.159 55.4347L219.154 55.3398ZM218.366 57.3939C218.398 57.6682 218.646 57.8648 218.92 57.833C219.194 57.8012 219.391 57.553 219.359 57.2787L218.366 57.3939ZM219.735 60.1571C219.696 59.8838 219.442 59.6944 219.169 59.7341C218.895 59.7737 218.706 60.0274 218.746 60.3007L219.735 60.1571ZM218.892 61.278C218.934 61.5509 219.19 61.7379 219.463 61.6957C219.736 61.6536 219.923 61.3982 219.88 61.1252L218.892 61.278ZM220.2 63.0742C220.153 62.8021 219.894 62.6196 219.622 62.6667C219.35 62.7137 219.167 62.9724 219.214 63.2445L220.2 63.0742ZM219.763 66.1952C219.817 66.4661 220.081 66.6419 220.352 66.5879C220.622 66.534 220.798 66.2707 220.744 65.9999L219.763 66.1952ZM220.936 66.9413C220.88 66.6709 220.615 66.4971 220.344 66.5532C220.074 66.6092 219.9 66.8739 219.956 67.1443L220.936 66.9413ZM220.367 69.052C220.427 69.3215 220.695 69.4912 220.964 69.431C221.234 69.3708 221.403 69.1036 221.343 68.8341L220.367 69.052ZM222.016 71.6971C221.95 71.429 221.679 71.2652 221.411 71.3313C221.143 71.3973 220.979 71.6682 221.045 71.9364L222.016 71.6971ZM221.287 72.9037C221.355 73.1713 221.627 73.3332 221.894 73.2652C222.162 73.1973 222.324 72.9252 222.256 72.6576L221.287 72.9037ZM222.76 74.5871C222.689 74.3204 222.414 74.1623 222.148 74.234C221.881 74.3056 221.723 74.5799 221.795 74.8466L222.76 74.5871ZM222.584 77.6749C222.661 77.9401 222.938 78.0929 223.203 78.0162C223.468 77.9394 223.621 77.6622 223.544 77.3969L222.584 77.6749ZM223.817 78.3289C223.739 78.0641 223.461 77.913 223.196 77.9914C222.931 78.0698 222.78 78.348 222.858 78.6128L223.817 78.3289ZM223.428 80.495C223.51 80.7589 223.79 80.9066 224.053 80.825C224.317 80.7435 224.465 80.4635 224.383 80.1997L223.428 80.495ZM225.283 83.0219C225.197 82.7595 224.914 82.6166 224.652 82.7028C224.39 82.7889 224.247 83.0714 224.333 83.3338L225.283 83.0219ZM224.648 84.2839C224.735 84.5458 225.019 84.687 225.281 84.5994C225.543 84.5118 225.684 84.2285 225.596 83.9666L224.648 84.2839ZM226.233 85.8361C226.143 85.5752 225.858 85.437 225.597 85.5275C225.336 85.6179 225.198 85.9028 225.288 86.1637L226.233 85.8361ZM226.268 88.9214C226.363 89.1809 226.65 89.3147 226.909 89.2202C227.169 89.1258 227.302 88.8389 227.208 88.5794L226.268 88.9214ZM227.544 89.4968C227.449 89.2378 227.161 89.1055 226.902 89.2012C226.643 89.2969 226.511 89.5845 226.606 89.8435L227.544 89.4968ZM227.3 91.6919C227.398 91.9499 227.687 92.0795 227.945 91.9812C228.203 91.8829 228.333 91.5941 228.234 91.336L227.3 91.6919ZM229.312 94.1045C229.21 93.8479 228.919 93.7225 228.662 93.8244C228.406 93.9263 228.28 94.217 228.382 94.4737L229.312 94.1045ZM228.754 95.4032C228.857 95.6593 229.148 95.7834 229.404 95.6803C229.66 95.5772 229.785 95.2859 229.681 95.0298L228.754 95.4032ZM230.418 96.8358C230.312 96.5806 230.02 96.4591 229.765 96.5645C229.51 96.6699 229.388 96.9622 229.493 97.2174L230.418 96.8358ZM230.632 99.926C230.741 100.18 231.035 100.298 231.289 100.189C231.543 100.08 231.66 99.7864 231.552 99.5326L230.632 99.926ZM231.939 100.433C231.83 100.18 231.535 100.063 231.282 100.173C231.028 100.283 230.912 100.577 231.022 100.83L231.939 100.433ZM231.814 102.641C231.926 102.894 232.221 103.008 232.474 102.896C232.726 102.784 232.84 102.489 232.729 102.236L231.814 102.641ZM233.948 104.946C233.833 104.695 233.536 104.584 233.285 104.699C233.034 104.814 232.923 105.11 233.038 105.362L233.948 104.946ZM233.454 106.267C233.57 106.518 233.867 106.627 234.118 106.512C234.369 106.396 234.478 106.099 234.362 105.848L233.454 106.267ZM235.185 107.611C235.067 107.361 234.769 107.254 234.519 107.372C234.27 107.49 234.162 107.787 234.28 108.037L235.185 107.611ZM235.55 110.694C235.67 110.943 235.969 111.047 236.218 110.926C236.466 110.806 236.57 110.507 236.45 110.258L235.55 110.694ZM236.879 111.141C236.758 110.893 236.458 110.79 236.21 110.912C235.962 111.033 235.86 111.332 235.981 111.58L236.879 111.141ZM236.855 113.353C236.978 113.6 237.279 113.701 237.526 113.577C237.773 113.454 237.874 113.154 237.751 112.907L236.855 113.353ZM239.087 115.556C238.961 115.31 238.66 115.213 238.414 115.338C238.168 115.464 238.071 115.765 238.196 116.011L239.087 115.556ZM238.648 116.892C238.775 117.138 239.076 117.234 239.322 117.108C239.567 116.981 239.664 116.68 239.537 116.434L238.648 116.892ZM240.437 118.167C240.309 117.922 240.007 117.828 239.762 117.956C239.518 118.084 239.423 118.386 239.551 118.631L240.437 118.167ZM240.932 121.236C241.062 121.48 241.366 121.571 241.609 121.441C241.852 121.31 241.944 121.007 241.813 120.764L240.932 121.236ZM242.279 121.629C242.148 121.386 241.844 121.295 241.601 121.427C241.358 121.558 241.268 121.861 241.399 122.104L242.279 121.629ZM242.343 123.838C242.476 124.081 242.78 124.169 243.022 124.036C243.264 123.904 243.353 123.6 243.22 123.358L242.343 123.838ZM244.656 125.947C244.521 125.706 244.216 125.621 243.975 125.756C243.734 125.891 243.649 126.195 243.784 126.436L244.656 125.947ZM244.268 127.298C244.404 127.539 244.709 127.624 244.95 127.488C245.19 127.352 245.275 127.047 245.139 126.807L244.268 127.298ZM246.107 128.509C245.97 128.269 245.664 128.186 245.425 128.323C245.185 128.46 245.102 128.766 245.239 129.006L246.107 128.509ZM246.717 131.561C246.857 131.799 247.163 131.88 247.401 131.74C247.64 131.601 247.72 131.295 247.581 131.056L246.717 131.561ZM248.078 131.904C247.938 131.666 247.631 131.587 247.393 131.727C247.155 131.867 247.076 132.173 247.216 132.411L248.078 131.904ZM248.221 134.109C248.362 134.346 248.669 134.424 248.906 134.282C249.143 134.141 249.221 133.834 249.08 133.597L248.221 134.109ZM250.603 136.128C250.46 135.892 250.152 135.817 249.916 135.961C249.68 136.104 249.605 136.412 249.749 136.648L250.603 136.128ZM250.263 137.491C250.407 137.727 250.715 137.801 250.95 137.657C251.186 137.513 251.26 137.205 251.116 136.97L250.263 137.491ZM252.145 138.642C252 138.407 251.692 138.335 251.457 138.48C251.222 138.625 251.15 138.934 251.295 139.168L252.145 138.642ZM252.861 141.675C253.008 141.909 253.317 141.979 253.551 141.831C253.784 141.684 253.854 141.375 253.707 141.142L252.861 141.675ZM254.232 141.972C254.084 141.739 253.775 141.67 253.542 141.818C253.309 141.966 253.24 142.275 253.388 142.508L254.232 141.972ZM254.448 144.17C254.598 144.402 254.907 144.469 255.139 144.32C255.372 144.171 255.439 143.862 255.29 143.629L254.448 144.17ZM256.893 146.104C256.742 145.873 256.432 145.808 256.201 145.959C255.969 146.11 255.905 146.42 256.056 146.651L256.893 146.104ZM256.596 147.475C256.747 147.706 257.057 147.77 257.288 147.618C257.519 147.467 257.583 147.157 257.431 146.926L256.596 147.475ZM258.517 148.569C258.364 148.339 258.054 148.276 257.824 148.429C257.594 148.582 257.532 148.893 257.685 149.123L258.517 148.569ZM259.333 151.581C259.488 151.81 259.799 151.87 260.027 151.715C260.256 151.561 260.316 151.25 260.161 151.021L259.333 151.581ZM260.713 151.835C260.558 151.607 260.247 151.547 260.019 151.703C259.79 151.858 259.731 152.169 259.886 152.397L260.713 151.835ZM260.998 154.023C261.155 154.251 261.466 154.309 261.694 154.152C261.921 153.996 261.979 153.684 261.822 153.457L260.998 154.023ZM263.499 155.875C263.341 155.649 263.029 155.593 262.803 155.752C262.577 155.91 262.521 156.222 262.68 156.448L263.499 155.875ZM263.243 157.252C263.402 157.478 263.714 157.532 263.94 157.374C264.166 157.215 264.22 156.903 264.061 156.677L263.243 157.252ZM265.201 158.289C265.041 158.064 264.729 158.011 264.504 158.171C264.279 158.331 264.226 158.643 264.386 158.868L265.201 158.289ZM266.113 161.279C266.275 161.502 266.588 161.553 266.811 161.391C267.035 161.229 267.086 160.917 266.924 160.693L266.113 161.279ZM267.501 161.49C267.339 161.266 267.026 161.217 266.803 161.379C266.579 161.541 266.53 161.854 266.692 162.077L267.501 161.49ZM267.854 163.668C268.017 163.89 268.33 163.938 268.553 163.775C268.775 163.611 268.823 163.298 268.66 163.076L267.854 163.668ZM270.407 165.436C270.242 165.215 269.929 165.169 269.707 165.334C269.486 165.5 269.44 165.813 269.606 166.034L270.407 165.436ZM270.192 166.818C270.358 167.039 270.671 167.083 270.892 166.918C271.113 166.752 271.158 166.439 270.992 166.218L270.192 166.818ZM272.183 167.797C272.016 167.577 271.703 167.534 271.483 167.7C271.263 167.867 271.22 168.181 271.386 168.401L272.183 167.797ZM273.191 170.761C273.36 170.98 273.674 171.02 273.893 170.852C274.111 170.683 274.152 170.369 273.983 170.15L273.191 170.761ZM274.585 170.929C274.416 170.711 274.102 170.671 273.884 170.84C273.666 171.009 273.626 171.324 273.795 171.542L274.585 170.929ZM275.005 173.094C275.175 173.311 275.49 173.35 275.707 173.179C275.924 173.009 275.962 172.695 275.792 172.477L275.005 173.094ZM277.608 174.776C277.436 174.56 277.122 174.524 276.906 174.696C276.69 174.869 276.654 175.183 276.826 175.399L277.608 174.776ZM277.435 176.161C277.608 176.376 277.922 176.411 278.138 176.239C278.353 176.066 278.388 175.751 278.215 175.536L277.435 176.161ZM279.461 177.082C279.287 176.868 278.973 176.835 278.758 177.009C278.543 177.182 278.51 177.497 278.684 177.712L279.461 177.082ZM280.566 180.016C280.742 180.229 281.057 180.26 281.27 180.084C281.483 179.909 281.514 179.594 281.338 179.38L280.566 180.016ZM281.965 180.139C281.789 179.926 281.474 179.897 281.261 180.073C281.048 180.249 281.019 180.564 281.195 180.777L281.965 180.139ZM282.453 182.287C282.63 182.499 282.946 182.526 283.157 182.349C283.369 182.172 283.397 181.856 283.219 181.645L282.453 182.287ZM285.104 183.874C284.924 183.664 284.609 183.639 284.399 183.818C284.189 183.997 284.163 184.313 284.343 184.523L285.104 183.874ZM284.98 185.269C285.16 185.478 285.475 185.503 285.685 185.323C285.895 185.143 285.919 184.827 285.739 184.618L284.98 185.269ZM287.042 186.128C286.861 185.92 286.545 185.897 286.337 186.078C286.128 186.259 286.106 186.575 286.287 186.784L287.042 186.128ZM288.247 189.022C288.43 189.229 288.746 189.249 288.953 189.066C289.16 188.883 289.179 188.567 288.996 188.36L288.247 189.022ZM289.647 189.095C289.464 188.888 289.148 188.87 288.942 189.053C288.735 189.237 288.717 189.553 288.9 189.759L289.647 189.095ZM290.206 191.219C290.391 191.424 290.707 191.441 290.912 191.256C291.118 191.071 291.134 190.755 290.949 190.55L290.206 191.219ZM292.906 192.703C292.719 192.5 292.403 192.486 292.2 192.673C291.996 192.859 291.982 193.176 292.169 193.379L292.906 192.703ZM292.851 194.12C293.038 194.323 293.355 194.335 293.557 194.148C293.76 193.961 293.773 193.644 293.586 193.441L292.851 194.12ZM294.943 194.902C294.754 194.7 294.438 194.69 294.236 194.878C294.035 195.067 294.024 195.383 294.213 195.585L294.943 194.902ZM296.252 197.74C296.442 197.94 296.759 197.947 296.958 197.756C297.158 197.566 297.165 197.249 296.974 197.049L296.252 197.74ZM297.65 197.754C297.459 197.555 297.142 197.549 296.943 197.74C296.744 197.932 296.738 198.248 296.929 198.447L297.65 197.754ZM298.283 199.844C298.476 200.041 298.792 200.045 298.99 199.852C299.188 199.659 299.191 199.343 298.998 199.145L298.283 199.844ZM301.074 201.247C300.879 201.052 300.562 201.052 300.367 201.247C300.171 201.442 300.171 201.759 300.366 201.954L301.074 201.247ZM301.077 202.663C301.273 202.858 301.589 202.857 301.784 202.661C301.979 202.465 301.978 202.148 301.782 201.954L301.077 202.663ZM303.193 203.345C302.996 203.152 302.679 203.156 302.486 203.353C302.293 203.551 302.297 203.867 302.494 204.06L303.193 203.345ZM304.609 206.103C304.809 206.293 305.126 206.286 305.316 206.086C305.507 205.886 305.499 205.57 305.299 205.379L304.609 206.103ZM305.998 206.042C305.797 205.853 305.481 205.861 305.291 206.062C305.102 206.263 305.11 206.579 305.311 206.769L305.998 206.042ZM306.734 208.102C306.936 208.29 307.253 208.278 307.44 208.076C307.628 207.874 307.617 207.557 307.414 207.369L306.734 208.102ZM309.634 209.401C309.429 209.216 309.112 209.232 308.928 209.437C308.743 209.642 308.759 209.958 308.964 210.143L309.634 209.401ZM309.703 210.806C309.909 210.99 310.225 210.972 310.409 210.766C310.593 210.56 310.575 210.244 310.369 210.06L309.703 210.806ZM311.83 211.351C311.623 211.17 311.307 211.191 311.125 211.399C310.943 211.607 310.964 211.923 311.172 212.104L311.83 211.351ZM313.364 213.988C313.574 214.167 313.89 214.14 314.068 213.929C314.247 213.719 314.22 213.403 314.009 213.225L313.364 213.988ZM314.79 213.88C314.578 213.703 314.262 213.732 314.085 213.944C313.908 214.156 313.937 214.471 314.149 214.648L314.79 213.88ZM315.708 215.933C315.922 216.107 316.237 216.075 316.411 215.861C316.585 215.647 316.553 215.332 316.339 215.157L315.708 215.933ZM318.633 216.986C318.415 216.816 318.101 216.855 317.931 217.072C317.761 217.29 317.8 217.604 318.017 217.774L318.633 216.986ZM318.779 218.364C318.998 218.533 319.312 218.492 319.48 218.273C319.649 218.054 319.608 217.74 319.389 217.572L318.779 218.364ZM320.926 218.735C320.704 218.57 320.391 218.616 320.226 218.837C320.061 219.059 320.107 219.372 320.328 219.537L320.926 218.735ZM322.794 221.324C323.02 221.483 323.332 221.429 323.491 221.204C323.65 220.978 323.596 220.666 323.37 220.507L322.794 221.324ZM324.173 221.067C323.945 220.91 323.634 220.967 323.477 221.194C323.32 221.421 323.377 221.733 323.605 221.89L324.173 221.067ZM325.207 222.973C325.437 223.126 325.748 223.062 325.9 222.832C326.052 222.602 325.989 222.292 325.759 222.139L325.207 222.973ZM328.252 223.729C328.017 223.584 327.709 223.658 327.564 223.894C327.42 224.129 327.494 224.437 327.73 224.581L328.252 223.729ZM328.599 225.106C328.836 225.247 329.143 225.169 329.284 224.931C329.425 224.694 329.347 224.387 329.11 224.246L328.599 225.106ZM330.797 225.218C330.555 225.083 330.251 225.17 330.116 225.411C329.982 225.652 330.069 225.957 330.31 226.091L330.797 225.218ZM332.903 227.455C333.15 227.577 333.45 227.475 333.572 227.228C333.695 226.98 333.593 226.68 333.345 226.558L332.903 227.455ZM334.263 226.999C334.013 226.882 333.715 226.99 333.598 227.24C333.481 227.49 333.589 227.788 333.839 227.905L334.263 226.999ZM335.671 228.715C335.926 228.821 336.219 228.701 336.325 228.446C336.431 228.191 336.31 227.898 336.055 227.792L335.671 228.715ZM338.737 228.786C338.475 228.702 338.193 228.846 338.108 229.109C338.023 229.371 338.167 229.653 338.43 229.738L338.737 228.786ZM339.43 230.042C339.696 230.118 339.972 229.964 340.048 229.698C340.124 229.433 339.97 229.156 339.704 229.08L339.43 230.042ZM341.566 229.535C341.295 229.481 341.031 229.656 340.977 229.926C340.922 230.197 341.098 230.461 341.368 230.515L341.566 229.535ZM344.378 230.89C344.654 230.901 344.887 230.686 344.898 230.41C344.908 230.134 344.694 229.902 344.418 229.891L344.378 230.89ZM345.369 229.897C345.093 229.904 344.875 230.135 344.883 230.411C344.891 230.687 345.121 230.904 345.397 230.896L345.369 229.897ZM347.374 230.691C347.645 230.641 347.824 230.38 347.774 230.108C347.723 229.837 347.462 229.658 347.191 229.708L347.374 230.691ZM349.844 228.798C349.6 228.927 349.507 229.23 349.637 229.474C349.766 229.718 350.069 229.81 350.313 229.681L349.844 228.798ZM122.633 206.363C122.901 206.299 123.067 206.029 123.002 205.76C122.938 205.492 122.668 205.326 122.4 205.39L122.633 206.363ZM124.443 204.896C124.175 204.961 124.011 205.232 124.076 205.5C124.142 205.769 124.412 205.933 124.68 205.867L124.443 204.896ZM127.698 205.121C127.965 205.053 128.128 204.782 128.061 204.514C127.994 204.246 127.722 204.083 127.454 204.151L127.698 205.121ZM128.443 203.901C128.176 203.969 128.014 204.241 128.081 204.509C128.149 204.776 128.421 204.938 128.689 204.871L128.443 203.901ZM130.65 204.369C130.917 204.3 131.078 204.027 131.009 203.76C130.94 203.493 130.668 203.332 130.4 203.401L130.65 204.369ZM133.282 202.647C133.015 202.718 132.856 202.991 132.927 203.258C132.998 203.525 133.271 203.684 133.538 203.613L133.282 202.647ZM134.487 203.36C134.754 203.289 134.912 203.015 134.841 202.748C134.769 202.481 134.495 202.323 134.228 202.394L134.487 203.36ZM136.1 201.888C135.833 201.961 135.676 202.236 135.749 202.502C135.822 202.769 136.097 202.926 136.363 202.853L136.1 201.888ZM139.372 202.019C139.637 201.944 139.792 201.668 139.717 201.402C139.642 201.136 139.366 200.982 139.101 201.056L139.372 202.019ZM140.101 200.773C139.835 200.849 139.681 201.125 139.757 201.391C139.832 201.657 140.109 201.811 140.375 201.735L140.101 200.773ZM142.355 201.165C142.62 201.088 142.773 200.811 142.696 200.546C142.618 200.28 142.341 200.128 142.076 200.205L142.355 201.165ZM144.975 199.348C144.711 199.428 144.561 199.707 144.64 199.971C144.719 200.236 144.998 200.386 145.263 200.306L144.975 199.348ZM146.215 200.019C146.479 199.938 146.629 199.659 146.548 199.395C146.468 199.131 146.189 198.981 145.925 199.062L146.215 200.019ZM147.799 198.486C147.535 198.568 147.388 198.848 147.47 199.112C147.552 199.376 147.832 199.523 148.095 199.442L147.799 198.486ZM150.953 198.54C151.216 198.455 151.36 198.174 151.276 197.911C151.191 197.648 150.91 197.503 150.647 197.588L150.953 198.54ZM151.648 197.264C151.385 197.35 151.242 197.632 151.327 197.894C151.412 198.157 151.694 198.301 151.957 198.215L151.648 197.264ZM153.936 197.564C154.198 197.477 154.339 197.194 154.252 196.932C154.165 196.67 153.882 196.528 153.62 196.615L153.936 197.564ZM156.502 195.637C156.241 195.727 156.103 196.012 156.193 196.273C156.283 196.534 156.568 196.672 156.829 196.582L156.502 195.637ZM157.774 196.253C158.034 196.162 158.172 195.876 158.08 195.616C157.989 195.355 157.704 195.218 157.443 195.309L157.774 196.253ZM159.296 194.652C159.036 194.745 158.901 195.031 158.994 195.291C159.088 195.551 159.374 195.686 159.634 195.593L159.296 194.652ZM162.436 194.565C162.694 194.468 162.826 194.18 162.729 193.922C162.632 193.663 162.344 193.532 162.085 193.629L162.436 194.565ZM163.071 193.257C162.812 193.355 162.683 193.644 162.781 193.902C162.879 194.16 163.167 194.29 163.425 194.192L163.071 193.257ZM165.369 193.443C165.626 193.343 165.753 193.053 165.653 192.795C165.552 192.538 165.262 192.411 165.005 192.512L165.369 193.443ZM167.818 191.387C167.562 191.492 167.44 191.784 167.544 192.039C167.649 192.295 167.941 192.417 168.196 192.313L167.818 191.387ZM169.115 191.934C169.37 191.828 169.491 191.536 169.385 191.281C169.279 191.026 168.987 190.905 168.732 191.011L169.115 191.934ZM170.525 190.255C170.271 190.363 170.153 190.657 170.262 190.911C170.371 191.165 170.664 191.283 170.918 191.174L170.525 190.255ZM173.74 189.936C173.991 189.823 174.104 189.527 173.99 189.275C173.877 189.023 173.581 188.911 173.329 189.024L173.74 189.936ZM174.274 188.595C174.022 188.71 173.912 189.007 174.027 189.258C174.142 189.509 174.439 189.619 174.69 189.504L174.274 188.595ZM176.549 188.638C176.798 188.519 176.904 188.221 176.786 187.972C176.667 187.722 176.369 187.616 176.12 187.734L176.549 188.638ZM178.784 186.435C178.537 186.559 178.437 186.859 178.561 187.106C178.685 187.353 178.985 187.452 179.232 187.329L178.784 186.435ZM180.099 186.89C180.345 186.764 180.442 186.463 180.317 186.217C180.191 185.971 179.89 185.874 179.644 185.999L180.099 186.89ZM181.452 185.057C181.209 185.187 181.116 185.49 181.246 185.733C181.375 185.977 181.678 186.07 181.922 185.94L181.452 185.057ZM184.649 184.443C184.89 184.306 184.974 184.001 184.838 183.761C184.701 183.521 184.396 183.436 184.156 183.573L184.649 184.443ZM185.023 183.075C184.784 183.214 184.703 183.52 184.842 183.759C184.98 183.997 185.286 184.079 185.525 183.94L185.023 183.075ZM187.227 182.931C187.463 182.788 187.538 182.481 187.395 182.245C187.252 182.008 186.944 181.933 186.708 182.076L187.227 182.931ZM189.271 180.465C189.04 180.616 188.975 180.925 189.126 181.157C189.276 181.388 189.586 181.453 189.818 181.302L189.271 180.465ZM190.688 180.727C190.917 180.573 190.978 180.262 190.825 180.033C190.671 179.803 190.36 179.742 190.131 179.896L190.688 180.727ZM191.791 178.754C191.565 178.913 191.512 179.225 191.671 179.45C191.831 179.676 192.143 179.729 192.368 179.57L191.791 178.754ZM194.741 177.821C194.96 177.652 195.001 177.338 194.833 177.119C194.664 176.901 194.35 176.86 194.131 177.028L194.741 177.821ZM194.96 176.38C194.744 176.552 194.708 176.867 194.879 177.083C195.051 177.299 195.366 177.335 195.582 177.164L194.96 176.38ZM197.194 175.841C197.405 175.662 197.43 175.346 197.252 175.136C197.073 174.925 196.758 174.899 196.547 175.078L197.194 175.841ZM198.751 173.11C198.55 173.299 198.541 173.616 198.73 173.817C198.919 174.018 199.236 174.027 199.437 173.838L198.751 173.11ZM200.15 173.154C200.348 172.961 200.352 172.644 200.159 172.447C199.966 172.249 199.649 172.245 199.452 172.438L200.15 173.154ZM200.9 170.966C200.711 171.167 200.72 171.483 200.921 171.673C201.122 171.862 201.438 171.853 201.627 171.652L200.9 170.966ZM203.64 169.377C203.816 169.164 203.786 168.849 203.573 168.673C203.36 168.497 203.045 168.527 202.869 168.739L203.64 169.377ZM203.473 167.992C203.302 168.209 203.339 168.523 203.556 168.694C203.772 168.865 204.087 168.828 204.258 168.612L203.473 167.992ZM205.518 166.93C205.678 166.705 205.625 166.393 205.4 166.233C205.175 166.073 204.863 166.126 204.703 166.351L205.518 166.93ZM206.324 163.869C206.182 164.106 206.26 164.413 206.497 164.555C206.734 164.696 207.041 164.619 207.182 164.382L206.324 163.869ZM207.691 163.503C207.826 163.262 207.74 162.958 207.499 162.823C207.258 162.688 206.953 162.773 206.818 163.014L207.691 163.503ZM207.754 161.224C207.634 161.472 207.737 161.772 207.985 161.892C208.234 162.013 208.533 161.909 208.654 161.661L207.754 161.224ZM209.862 158.865C209.96 158.606 209.83 158.318 209.572 158.22C209.314 158.122 209.025 158.251 208.927 158.509L209.862 158.865ZM209.27 157.562C209.18 157.823 209.319 158.108 209.58 158.198C209.841 158.288 210.126 158.149 210.216 157.888L209.27 157.562ZM210.827 155.924C210.901 155.658 210.745 155.382 210.479 155.308C210.213 155.234 209.937 155.39 209.863 155.656L210.827 155.924ZM210.53 152.755C210.48 153.027 210.66 153.287 210.932 153.337C211.203 153.387 211.464 153.207 211.514 152.935L210.53 152.755ZM211.684 151.923C211.725 151.65 211.538 151.395 211.265 151.353C210.992 151.312 210.737 151.499 210.695 151.772L211.684 151.923ZM210.94 149.793C210.914 150.068 211.115 150.312 211.39 150.338C211.665 150.365 211.909 150.163 211.935 149.888L210.94 149.793ZM212.101 146.828C212.105 146.552 211.884 146.325 211.608 146.321C211.332 146.317 211.105 146.537 211.101 146.813L212.101 146.828ZM211.103 145.815C211.106 146.091 211.332 146.312 211.608 146.309C211.884 146.306 212.106 146.08 212.103 145.804L211.103 145.815ZM212.031 143.747C212.015 143.471 211.779 143.261 211.503 143.277C211.227 143.293 211.017 143.529 211.033 143.805L212.031 143.747ZM210.761 140.835C210.794 141.109 211.044 141.303 211.318 141.269C211.592 141.236 211.787 140.986 211.753 140.712L210.761 140.835ZM211.617 139.694C211.577 139.421 211.324 139.231 211.051 139.27C210.777 139.31 210.588 139.563 210.627 139.837L211.617 139.694ZM210.304 137.857C210.353 138.129 210.614 138.309 210.885 138.259C211.157 138.21 211.337 137.95 211.288 137.678L210.304 137.857ZM210.666 134.69C210.603 134.421 210.334 134.254 210.065 134.317C209.796 134.38 209.629 134.649 209.692 134.918L210.666 134.69ZM209.453 133.931C209.52 134.199 209.792 134.362 210.059 134.295C210.327 134.228 210.49 133.957 210.424 133.689L209.453 133.931ZM209.906 131.732C209.832 131.466 209.557 131.31 209.291 131.384C209.025 131.458 208.869 131.734 208.943 132L209.906 131.732ZM208.078 129.106C208.162 129.369 208.443 129.515 208.706 129.431C208.969 129.347 209.115 129.066 209.031 128.803L208.078 129.106ZM208.712 127.821C208.626 127.559 208.343 127.417 208.081 127.504C207.819 127.59 207.676 127.873 207.763 128.135L208.712 127.821ZM207.119 126.252C207.211 126.512 207.497 126.649 207.757 126.557C208.018 126.465 208.154 126.18 208.062 125.919L207.119 126.252ZM207.007 123.049C206.909 122.791 206.62 122.662 206.362 122.761C206.104 122.859 205.975 123.148 206.073 123.406L207.007 123.049ZM205.707 122.458C205.807 122.715 206.097 122.842 206.355 122.742C206.612 122.641 206.739 122.351 206.638 122.094L205.707 122.458ZM205.893 120.227C205.789 119.971 205.498 119.848 205.242 119.952C204.986 120.056 204.863 120.348 204.967 120.603L205.893 120.227ZM203.797 117.801C203.906 118.055 204.2 118.173 204.454 118.064C204.708 117.956 204.825 117.662 204.717 117.408L203.797 117.801ZM204.313 116.471C204.203 116.217 203.909 116.101 203.656 116.211C203.402 116.321 203.286 116.615 203.396 116.869L204.313 116.471ZM202.591 115.035C202.703 115.288 202.998 115.401 203.251 115.289C203.503 115.177 203.617 114.882 203.505 114.629L202.591 115.035ZM202.251 111.851C202.136 111.6 201.839 111.489 201.588 111.604C201.337 111.719 201.227 112.016 201.341 112.267L202.251 111.851ZM200.917 111.342C201.032 111.593 201.329 111.702 201.58 111.587C201.831 111.471 201.94 111.174 201.825 110.923L200.917 111.342ZM200.977 109.099C200.86 108.849 200.563 108.741 200.313 108.858C200.062 108.975 199.954 109.272 200.071 109.522L200.977 109.099ZM198.777 106.776C198.896 107.025 199.194 107.132 199.443 107.013C199.693 106.895 199.799 106.597 199.681 106.347L198.777 106.776ZM199.243 105.426C199.125 105.176 198.826 105.07 198.577 105.189C198.328 105.308 198.222 105.606 198.34 105.855L199.243 105.426ZM197.474 104.039C197.593 104.288 197.892 104.394 198.141 104.275C198.39 104.156 198.496 103.857 198.376 103.608L197.474 104.039ZM197.066 100.87C196.947 100.621 196.648 100.515 196.399 100.635C196.15 100.754 196.045 101.052 196.164 101.302L197.066 100.87ZM195.725 100.385C195.845 100.634 196.143 100.739 196.392 100.62C196.641 100.501 196.747 100.202 196.628 99.9531L195.725 100.385ZM195.757 98.1312C195.639 97.882 195.34 97.7762 195.091 97.895C194.842 98.0139 194.736 98.3123 194.855 98.5615L195.757 98.1312ZM193.554 95.82C193.671 96.0697 193.969 96.1765 194.219 96.0586C194.469 95.9408 194.576 95.6428 194.458 95.393L193.554 95.82ZM194.026 94.4765C193.909 94.2266 193.611 94.1192 193.361 94.2367C193.111 94.3541 193.004 94.6519 193.121 94.9018L194.026 94.4765ZM192.263 93.0667C192.379 93.3171 192.677 93.4257 192.927 93.3093C193.178 93.1929 193.286 92.8955 193.17 92.6451L192.263 93.0667ZM191.904 89.8945C191.789 89.6431 191.493 89.5321 191.242 89.6466C190.99 89.761 190.879 90.0575 190.994 90.3088L191.904 89.8945ZM190.575 89.3853C190.689 89.637 190.985 89.7489 191.236 89.6353C191.488 89.5217 191.6 89.2255 191.486 88.9739L190.575 89.3853ZM190.661 87.1287C190.549 86.8763 190.254 86.7623 190.001 86.8742C189.749 86.986 189.635 87.2814 189.747 87.5339L190.661 87.1287ZM188.532 84.7481C188.641 85.0019 188.935 85.1195 189.188 85.0107C189.442 84.9019 189.56 84.608 189.451 84.3542L188.532 84.7481ZM189.056 83.4257C188.948 83.1714 188.654 83.0525 188.4 83.1601C188.146 83.2678 188.027 83.5612 188.135 83.8155L189.056 83.4257ZM187.353 81.9441C187.458 82.1994 187.75 82.3212 188.006 82.216C188.261 82.1109 188.383 81.8187 188.278 81.5633L187.353 81.9441ZM187.148 78.7551C187.047 78.4981 186.757 78.3715 186.5 78.4724C186.243 78.5733 186.116 78.8635 186.217 79.1206L187.148 78.7551ZM185.849 78.1754C185.949 78.433 186.238 78.5613 186.496 78.4619C186.753 78.3626 186.882 78.0732 186.782 77.8155L185.849 78.1754ZM186.069 75.9309C185.973 75.6721 185.685 75.5401 185.426 75.6361C185.167 75.7322 185.035 76.02 185.131 76.2789L186.069 75.9309ZM184.101 73.4117C184.192 73.6725 184.477 73.8106 184.737 73.7199C184.998 73.6293 185.136 73.3444 185.046 73.0836L184.101 73.4117ZM184.719 72.1304C184.63 71.8689 184.346 71.7287 184.085 71.8173C183.823 71.906 183.683 72.1898 183.771 72.4514L184.719 72.1304ZM183.135 70.5247C183.22 70.7876 183.501 70.9322 183.764 70.8478C184.027 70.7633 184.172 70.4817 184.087 70.2188L183.135 70.5247ZM183.2 67.33C183.122 67.065 182.844 66.9131 182.579 66.9908C182.314 67.0684 182.162 67.3462 182.24 67.6112L183.2 67.33ZM181.959 66.6345C182.034 66.9002 182.31 67.0546 182.576 66.9794C182.841 66.9042 182.996 66.6278 182.921 66.3621L181.959 66.6345ZM182.391 64.421C182.321 64.154 182.048 63.9943 181.78 64.0644C181.513 64.1345 181.354 64.4079 181.424 64.675L182.391 64.421ZM180.695 61.715C180.756 61.9841 181.025 62.1521 181.294 62.0903C181.563 62.0284 181.731 61.7601 181.669 61.491L180.695 61.715ZM181.449 60.5089C181.39 60.2391 181.124 60.0682 180.854 60.1271C180.584 60.186 180.413 60.4525 180.472 60.7223L181.449 60.5089ZM180.06 58.7308C180.113 59.0019 180.376 59.1788 180.647 59.1259C180.918 59.0731 181.095 58.8105 181.042 58.5395L180.06 58.7308ZM180.518 55.5715C180.475 55.2987 180.219 55.1125 179.946 55.1556C179.673 55.1987 179.487 55.4547 179.53 55.7275L180.518 55.5715ZM179.377 54.7216C179.417 54.9948 179.671 55.1842 179.944 55.1445C180.217 55.1049 180.407 54.8512 180.367 54.5779L179.377 54.7216ZM180.104 52.5858C180.071 52.3115 179.823 52.1157 179.548 52.1483C179.274 52.1809 179.078 52.4296 179.111 52.7038L180.104 52.5858ZM178.812 49.6646C178.833 49.94 179.074 50.1458 179.349 50.1244C179.624 50.103 179.83 49.8624 179.809 49.5871L178.812 49.6646ZM179.738 48.5877C179.72 48.3121 179.483 48.1029 179.207 48.1204C178.932 48.138 178.722 48.3756 178.74 48.6512L179.738 48.5877ZM178.64 46.6185C178.649 46.8945 178.881 47.1104 179.157 47.1008C179.433 47.0912 179.649 46.8597 179.639 46.5837L178.64 46.6185ZM179.601 43.566C179.604 43.2899 179.383 43.0638 179.106 43.061C178.83 43.0582 178.604 43.2798 178.601 43.556L179.601 43.566ZM178.619 42.5437C178.612 42.8198 178.831 43.0492 179.107 43.0562C179.383 43.0632 179.612 42.845 179.619 42.569L178.619 42.5437ZM179.701 40.57C179.716 40.2943 179.505 40.0582 179.229 40.0427C178.954 40.0271 178.718 40.238 178.702 40.5138L179.701 40.57ZM178.948 37.4554C178.919 37.73 179.118 37.9759 179.393 38.0046C179.668 38.0333 179.913 37.8339 179.942 37.5593L178.948 37.4554ZM4.49238 184.087C4.52231 183.917 4.55297 183.748 4.58434 183.579L3.60116 183.396C3.56924 183.568 3.53805 183.741 3.50759 183.913L4.49238 184.087ZM4.9951 181.571C5.21755 180.577 5.46546 179.595 5.73829 178.628L4.77582 178.356C4.49801 179.342 4.24562 180.34 4.0192 181.353L4.9951 181.571ZM6.01941 177.665C6.21233 177.025 6.41624 176.392 6.63099 175.765L5.68488 175.441C5.46618 176.08 5.25852 176.725 5.06207 177.376L6.01941 177.665ZM7.69132 172.928C7.81833 172.615 7.94813 172.304 8.0807 171.994L7.16132 171.601C7.02631 171.916 6.89412 172.233 6.76476 172.552L7.69132 172.928ZM8.90915 170.153C9.3398 169.242 9.79497 168.343 10.2741 167.458L9.39466 166.982C8.90693 167.883 8.4435 168.798 8.00497 169.726L8.90915 170.153ZM10.7611 166.578C11.0909 165.994 11.4311 165.416 11.7818 164.843L10.9291 164.321C10.5723 164.903 10.226 165.492 9.8904 166.086L10.7611 166.578ZM13.4292 162.306C13.6199 162.028 13.8131 161.752 14.0089 161.477L13.1943 160.897C12.9953 161.177 12.7988 161.458 12.6049 161.74L13.4292 162.306ZM15.2132 159.844C15.8211 159.048 16.4505 158.264 17.1009 157.492L16.336 156.848C15.6755 157.632 15.0361 158.428 14.4184 159.237L15.2132 159.844ZM17.7535 156.729C18.1932 156.223 18.6419 155.722 19.0997 155.226L18.3649 154.548C17.9004 155.051 17.445 155.559 16.9986 156.073L17.7535 156.729ZM21.2193 153.029C21.4614 152.788 21.7057 152.549 21.9522 152.311L21.2576 151.592C21.0078 151.833 20.7602 152.075 20.5147 152.319L21.2193 153.029ZM23.409 150.942C24.146 150.267 24.9007 149.603 25.6726 148.949L25.026 148.186C24.2446 148.848 23.4804 149.521 22.7339 150.204L23.409 150.942ZM26.4503 148.298C26.9725 147.866 27.5024 147.439 28.0396 147.016L27.4212 146.23C26.8777 146.658 26.3416 147.09 25.8131 147.527L26.4503 148.298ZM30.4672 145.172C30.7348 144.975 31.0039 144.78 31.2748 144.586L30.6918 143.773C30.4181 143.97 30.1461 144.167 29.8757 144.365L30.4672 145.172ZM32.9192 143.432C33.7511 142.86 34.5975 142.298 35.458 141.744L34.9167 140.903C34.0481 141.462 33.1935 142.03 32.3532 142.607L32.9192 143.432ZM36.3231 141.193C36.9022 140.828 37.4874 140.467 38.0787 140.109L37.5612 139.253C36.9648 139.614 36.3742 139.979 35.7898 140.347L36.3231 141.193ZM40.6601 138.593C40.951 138.428 41.2432 138.262 41.5367 138.098L41.0485 137.226C40.7526 137.391 40.458 137.557 40.1647 137.725L40.6601 138.593ZM43.3136 137.123C44.2099 136.64 45.1177 136.165 46.0368 135.697L45.583 134.805C44.6572 135.277 43.7426 135.756 42.8394 136.242L43.3136 137.123ZM46.9597 135.231C47.5569 134.932 48.1588 134.637 48.7652 134.344L48.3305 133.443C47.72 133.738 47.114 134.036 46.5125 134.336L46.9597 135.231ZM51.4941 133.06C51.8006 132.92 52.1081 132.78 52.4166 132.641L52.0058 131.729C51.6953 131.869 51.3858 132.01 51.0774 132.151L51.4941 133.06ZM54.2806 131.815C55.2188 131.407 56.1662 131.004 57.1226 130.608L56.7398 129.684C55.778 130.083 54.825 130.487 53.8812 130.899L54.2806 131.815ZM58.0622 130.222C58.678 129.971 59.2973 129.722 59.9203 129.476L59.5528 128.546C58.9266 128.793 58.3038 129.043 57.6846 129.296L58.0622 130.222ZM62.7468 128.385C63.0634 128.266 63.3808 128.147 63.6992 128.029L63.3511 127.091C63.0312 127.21 62.7122 127.329 62.3939 127.449L62.7468 128.385ZM65.6189 127.327C66.5832 126.98 67.5548 126.638 68.5334 126.301L68.2081 125.356C67.2251 125.694 66.249 126.037 65.2802 126.386L65.6189 127.327ZM69.4802 125.978C70.1128 125.763 70.7482 125.551 71.3865 125.341L71.0737 124.391C70.4327 124.602 69.7945 124.815 69.1591 125.031L69.4802 125.978ZM74.2771 124.409C74.6003 124.307 74.9242 124.206 75.2487 124.105L74.9518 123.15C74.626 123.251 74.3008 123.353 73.9763 123.456L74.2771 124.409ZM77.2036 123.506C78.1834 123.209 79.1689 122.918 80.1597 122.631L79.8814 121.67C78.8869 121.958 77.8978 122.251 76.9143 122.548L77.2036 123.506ZM81.1243 122.353C81.7685 122.169 82.4149 121.987 83.0635 121.806L82.7955 120.843C82.1447 121.024 81.496 121.207 80.8495 121.392L81.1243 122.353ZM85.9966 121.006C86.3241 120.919 86.652 120.832 86.9805 120.745L86.7255 119.778C86.396 119.865 86.0669 119.952 85.7384 120.04L85.9966 121.006ZM88.9574 120.231C89.9488 119.976 90.9446 119.725 91.9445 119.479L91.7049 118.508C90.702 118.755 89.7032 119.007 88.7087 119.262L88.9574 120.231ZM92.9241 119.238C93.5765 119.079 94.2307 118.922 94.8865 118.766L94.6554 117.793C93.9977 117.949 93.3417 118.107 92.6874 118.267L92.9241 119.238ZM97.8485 118.076C98.1788 118 98.5094 117.925 98.8405 117.85L98.6202 116.875C98.2883 116.95 97.9567 117.025 97.6255 117.101L97.8485 118.076ZM100.831 117.406C101.829 117.187 102.83 116.97 103.834 116.757L103.626 115.779C102.62 115.993 101.616 116.209 100.616 116.43L100.831 117.406ZM104.832 116.547C105.491 116.409 106.151 116.272 106.812 116.137L106.612 115.157C105.949 115.293 105.287 115.43 104.627 115.568L104.832 116.547ZM109.795 115.538C110.127 115.472 110.46 115.407 110.793 115.342L110.601 114.36C110.268 114.425 109.934 114.491 109.601 114.556L109.795 115.538ZM112.793 114.957C113.794 114.766 114.798 114.578 115.804 114.393L115.624 113.41C114.616 113.595 113.61 113.783 112.606 113.974L112.793 114.957ZM116.811 114.209C117.476 114.089 118.143 113.969 118.81 113.85L118.635 112.866C117.967 112.985 117.299 113.104 116.632 113.225L116.811 114.209ZM121.81 113.327C122.144 113.27 122.478 113.213 122.812 113.156L122.645 112.17C122.31 112.227 121.975 112.284 121.641 112.342L121.81 113.327ZM124.819 112.82C125.824 112.653 126.829 112.489 127.837 112.328L127.678 111.34C126.669 111.502 125.662 111.666 124.655 111.833L124.819 112.82ZM128.844 112.167C129.515 112.061 130.186 111.956 130.858 111.851L130.705 110.863C130.032 110.967 129.359 111.073 128.687 111.179L128.844 112.167ZM133.873 111.391C134.208 111.341 134.544 111.291 134.879 111.241L134.732 110.252C134.396 110.302 134.06 110.352 133.725 110.402L133.873 111.391ZM136.893 110.945C137.9 110.798 138.908 110.654 139.916 110.512L139.776 109.522C138.767 109.664 137.757 109.809 136.749 109.955L136.893 110.945ZM140.924 110.371C141.596 110.277 142.268 110.184 142.94 110.092L142.805 109.101C142.132 109.193 141.459 109.286 140.785 109.38L140.924 110.371ZM145.97 109.684C146.307 109.64 146.644 109.595 146.981 109.551L146.85 108.559C146.513 108.604 146.176 108.648 145.839 108.693L145.97 109.684ZM149.001 109.288C150.011 109.158 151.02 109.03 152.029 108.904L151.905 107.912C150.895 108.038 149.884 108.166 148.873 108.296L149.001 109.288ZM153.038 108.778C153.71 108.695 154.383 108.612 155.055 108.531L154.934 107.538C154.261 107.62 153.588 107.702 152.915 107.786L153.038 108.778ZM158.091 108.166C158.429 108.126 158.767 108.087 159.105 108.047L158.989 107.054C158.65 107.093 158.312 107.133 157.973 107.173L158.091 108.166ZM161.133 107.811C162.145 107.695 163.157 107.579 164.168 107.466L164.056 106.472C163.045 106.586 162.032 106.701 161.018 106.818L161.133 107.811ZM165.178 107.353C165.851 107.278 166.523 107.204 167.195 107.13L167.086 106.136C166.413 106.21 165.74 106.284 165.067 106.359L165.178 107.353ZM170.226 106.802C170.566 106.765 170.906 106.729 171.245 106.693L171.14 105.699C170.8 105.735 170.459 105.771 170.119 105.807L170.226 106.802ZM173.281 106.478C174.297 106.372 175.311 106.267 176.323 106.163L176.221 105.168C175.209 105.272 174.194 105.377 173.177 105.484L173.281 106.478ZM177.335 106.06C178.008 105.991 178.681 105.923 179.352 105.855L179.252 104.86C178.58 104.928 177.907 104.996 177.233 105.065L177.335 106.06ZM182.371 105.555C182.713 105.521 183.054 105.487 183.396 105.454L183.298 104.459C182.957 104.492 182.615 104.526 182.272 104.56L182.371 105.555ZM185.44 105.254C186.46 105.155 187.477 105.057 188.491 104.96L188.396 103.965C187.381 104.062 186.364 104.16 185.343 104.259L185.44 105.254ZM189.503 104.864C190.177 104.799 190.85 104.736 191.521 104.672L191.427 103.677C190.756 103.74 190.083 103.804 189.408 103.868L189.503 104.864ZM194.53 104.39C194.872 104.358 195.214 104.326 195.556 104.294L195.463 103.298C195.121 103.33 194.78 103.362 194.437 103.394L194.53 104.39ZM197.608 104.103C198.632 104.009 199.651 103.915 200.666 103.821L200.574 102.825C199.559 102.919 198.54 103.013 197.516 103.108L197.608 104.103ZM201.679 103.728C202.353 103.666 203.025 103.605 203.695 103.543L203.604 102.547C202.934 102.609 202.262 102.67 201.587 102.732L201.679 103.728ZM206.696 103.269C207.04 103.237 207.383 103.206 207.726 103.174L207.635 102.178C207.292 102.21 206.949 102.241 206.605 102.273L206.696 103.269ZM209.786 102.986C210.811 102.892 211.831 102.798 212.845 102.705L212.753 101.709C211.74 101.802 210.72 101.896 209.694 101.99L209.786 102.986ZM213.857 102.611C214.53 102.549 215.2 102.487 215.867 102.425L215.775 101.43C215.108 101.492 214.438 101.554 213.765 101.616L213.857 102.611ZM218.872 102.145C219.219 102.113 219.565 102.08 219.91 102.048L219.816 101.052C219.471 101.085 219.126 101.117 218.779 101.15L218.872 102.145ZM221.971 101.853C222.996 101.755 224.013 101.657 225.022 101.559L224.925 100.564C223.917 100.662 222.9 100.759 221.876 100.857L221.971 101.853ZM226.028 101.461C226.697 101.396 227.362 101.331 228.023 101.265L227.925 100.27C227.264 100.336 226.599 100.401 225.931 100.466L226.028 101.461ZM231.071 100.959C231.418 100.924 231.763 100.888 232.106 100.853L232.004 99.8581C231.661 99.8934 231.316 99.9287 230.97 99.964L231.071 100.959ZM234.156 100.64C235.173 100.533 236.18 100.425 237.176 100.316L237.068 99.3223C236.073 99.4307 235.068 99.5383 234.051 99.6452L234.156 100.64ZM238.169 100.208C238.836 100.134 239.498 100.06 240.156 99.9852L240.043 98.9916C239.387 99.066 238.726 99.14 238.059 99.2136L238.169 100.208ZM243.273 99.6231C243.615 99.5824 243.955 99.5416 244.294 99.5006L244.173 98.5079C243.835 98.5488 243.496 98.5895 243.155 98.6301L243.273 99.6231ZM246.307 99.2527C247.304 99.1276 248.286 99.001 249.254 98.8726L249.122 97.8813C248.157 98.0094 247.177 98.1357 246.182 98.2604L246.307 99.2527ZM250.299 98.7324C251.001 98.6372 251.694 98.5411 252.379 98.4438L252.239 97.4537C251.556 97.5507 250.864 97.6466 250.165 97.7414L250.299 98.7324ZM255.405 97.9985C255.735 97.9482 256.062 97.8975 256.388 97.8465L256.233 96.8586C255.909 96.9094 255.583 96.9598 255.254 97.01L255.405 97.9985ZM258.346 97.5315C259.412 97.3553 260.453 97.1753 261.467 96.9911L261.289 96.0072C260.28 96.1904 259.245 96.3695 258.183 96.5449L258.346 97.5315ZM262.473 96.8055C263.137 96.6807 263.79 96.5541 264.43 96.4254L264.233 95.445C263.597 95.5728 262.949 95.6987 262.288 95.8226L262.473 96.8055ZM267.453 95.7814C267.799 95.7032 268.141 95.6242 268.478 95.5445L268.248 94.5713C267.914 94.6502 267.576 94.7285 267.233 94.806L267.453 95.7814ZM270.452 95.0566C271.474 94.7919 272.452 94.5187 273.383 94.2364L273.093 93.2794C272.176 93.5573 271.212 93.8268 270.201 94.0885L270.452 95.0566ZM274.408 93.9162C275.078 93.7002 275.721 93.4787 276.338 93.2516L275.993 92.3132C275.39 92.5352 274.759 92.7522 274.101 92.9645L274.408 93.9162ZM279.208 92.0608C279.534 91.9072 279.849 91.7511 280.153 91.5923L279.69 90.7058C279.399 90.8579 279.096 91.0081 278.781 91.1563L279.208 92.0608ZM281.847 90.6064C282.84 89.9567 283.673 89.2609 284.325 88.5115L283.571 87.8548C282.993 88.519 282.235 89.1571 281.299 89.7695L281.847 90.6064ZM284.97 87.6643C285.39 87.0226 285.685 86.3441 285.844 85.6279L284.867 85.412C284.737 85.9996 284.493 86.5667 284.133 87.1165L284.97 87.6643ZM285.662 82.3843C285.605 82.1975 285.54 82.0094 285.467 81.8201L284.534 82.1799C284.599 82.3485 284.656 82.5146 284.707 82.6783L285.662 82.3843ZM247.321 2.03325C247.158 2.09575 246.996 2.15876 246.835 2.22228L247.202 3.15264C247.36 3.09018 247.519 3.02821 247.679 2.96673L247.321 2.03325ZM244.936 3.00872C244.005 3.41401 243.099 3.83731 242.22 4.27822L242.669 5.1721C243.531 4.73953 244.42 4.32391 245.335 3.92571L244.936 3.00872ZM241.35 4.72497C240.775 5.0267 240.212 5.3362 239.661 5.65333L240.159 6.52025C240.7 6.20955 241.251 5.90619 241.815 5.6103L241.35 4.72497ZM237.092 7.23948C236.811 7.42583 236.533 7.61439 236.258 7.80515L236.829 8.62637C237.097 8.43983 237.369 8.2554 237.644 8.07309L237.092 7.23948ZM234.651 8.97589C233.867 9.57427 233.113 10.192 232.388 10.8286L233.048 11.5799C233.756 10.9586 234.492 10.3554 235.258 9.77073L234.651 8.97589ZM231.637 11.5043C231.141 11.9626 230.658 12.43 230.19 12.9066L230.904 13.6073C231.36 13.1426 231.831 12.6865 232.315 12.2394L231.637 11.5043ZM228.18 15.1112C227.967 15.3628 227.758 15.6165 227.552 15.8724L228.332 16.499C228.532 16.2495 228.736 16.0022 228.944 15.7569L228.18 15.1112ZM226.349 17.4482C225.762 18.2579 225.208 19.0872 224.685 19.9353L225.536 20.4601C226.046 19.633 226.587 18.8244 227.159 18.0351L226.349 17.4482ZM224.172 20.7897C223.838 21.3634 223.517 21.9454 223.211 22.5354L224.098 22.9967C224.397 22.4208 224.71 21.853 225.036 21.2934L224.172 20.7897ZM221.934 25.2188C221.802 25.5215 221.674 25.8261 221.549 26.1325L222.475 26.5098C222.597 26.2103 222.723 25.9127 222.851 25.6169L221.934 25.2188ZM220.839 27.9929C220.504 28.9317 220.198 29.8864 219.92 30.8564L220.882 31.1319C221.154 30.1817 221.454 29.2472 221.781 28.3289L220.839 27.9929ZM219.661 31.7979C219.493 32.4288 219.337 33.0658 219.193 33.7089L220.169 33.9281C220.31 33.2973 220.463 32.6726 220.627 32.0544L219.661 31.7979ZM218.619 36.6431C218.564 36.9735 218.511 37.3054 218.461 37.6387L219.45 37.7866C219.499 37.4591 219.551 37.133 219.605 36.8085L218.619 36.6431ZM218.2 39.6047C218.089 40.5701 217.999 41.5468 217.93 42.534L218.928 42.6031C218.995 41.6307 219.084 40.6694 219.194 39.7197L218.2 39.6047ZM217.869 43.5248C217.833 44.1877 217.806 44.8552 217.789 45.5272L218.789 45.5531C218.806 44.8904 218.832 44.2324 218.868 43.5792L217.869 43.5248ZM217.772 48.5044C217.777 48.828 217.783 49.1525 217.792 49.478L218.791 49.4518C218.783 49.1304 218.776 48.8099 218.772 48.4905L217.772 48.5044ZM217.867 51.442C217.916 52.4296 217.984 53.4253 218.068 54.4287L219.065 54.3447C218.981 53.3522 218.914 52.3678 218.866 51.392L217.867 51.442ZM218.159 55.4347C218.221 56.0847 218.29 56.7378 218.366 57.3939L219.359 57.2787C219.284 56.6292 219.215 55.9829 219.154 55.3398L218.159 55.4347ZM218.746 60.3007C218.793 60.6258 218.842 60.9515 218.892 61.278L219.88 61.1252C219.83 60.8018 219.782 60.4791 219.735 60.1571L218.746 60.3007ZM219.214 63.2445C219.383 64.2225 219.567 65.2062 219.763 66.1952L220.744 65.9999C220.549 65.0189 220.367 64.0436 220.2 63.0742L219.214 63.2445ZM219.956 67.1443C220.088 67.7781 220.225 68.414 220.367 69.052L221.343 68.8341C221.202 68.201 221.066 67.57 220.936 66.9413L219.956 67.1443ZM221.045 71.9364C221.124 72.2583 221.205 72.5808 221.287 72.9037L222.256 72.6576C222.175 72.3369 222.095 72.0168 222.016 71.6971L221.045 71.9364ZM221.795 74.8466C222.047 75.7857 222.31 76.7286 222.584 77.6749L223.544 77.3969C223.272 76.4566 223.011 75.5199 222.76 74.5871L221.795 74.8466ZM222.858 78.6128C223.044 79.2388 223.234 79.8662 223.428 80.495L224.383 80.1997C224.19 79.5746 224.001 78.951 223.817 78.3289L222.858 78.6128ZM224.333 83.3338C224.437 83.6502 224.542 83.9669 224.648 84.2839L225.596 83.9666C225.491 83.6514 225.386 83.3365 225.283 83.0219L224.333 83.3338ZM225.288 86.1637C225.606 87.0806 225.933 88 226.268 88.9214L227.208 88.5794C226.874 87.6627 226.549 86.7482 226.233 85.8361L225.288 86.1637ZM226.606 89.8435C226.834 90.4588 227.065 91.0749 227.3 91.6919L228.234 91.336C228.001 90.7221 227.771 90.109 227.544 89.4968L226.606 89.8435ZM228.382 94.4737C228.505 94.7833 228.629 95.0932 228.754 95.4032L229.681 95.0298C229.557 94.7212 229.434 94.4127 229.312 94.1045L228.382 94.4737ZM229.493 97.2174C229.866 98.119 230.245 99.022 230.632 99.926L231.552 99.5326C231.166 98.6324 230.788 97.7334 230.418 96.8358L229.493 97.2174ZM231.022 100.83C231.283 101.434 231.547 102.037 231.814 102.641L232.729 102.236C232.462 101.635 232.199 101.034 231.939 100.433L231.022 100.83ZM233.038 105.362C233.176 105.663 233.315 105.965 233.454 106.267L234.362 105.848C234.223 105.547 234.085 105.246 233.948 104.946L233.038 105.362ZM234.28 108.037C234.697 108.923 235.12 109.808 235.55 110.694L236.45 110.258C236.022 109.376 235.6 108.493 235.185 107.611L234.28 108.037ZM235.981 111.58C236.27 112.171 236.561 112.762 236.855 113.353L237.751 112.907C237.458 112.318 237.167 111.73 236.879 111.141L235.981 111.58ZM238.196 116.011C238.346 116.305 238.497 116.599 238.648 116.892L239.537 116.434C239.387 116.142 239.236 115.849 239.087 115.556L238.196 116.011ZM239.551 118.631C240.006 119.5 240.467 120.368 240.932 121.236L241.813 120.764C241.35 119.899 240.891 119.033 240.437 118.167L239.551 118.631ZM241.399 122.104C241.712 122.683 242.026 123.261 242.343 123.838L243.22 123.358C242.904 122.782 242.59 122.205 242.279 121.629L241.399 122.104ZM243.784 126.436C243.945 126.724 244.106 127.011 244.268 127.298L245.139 126.807C244.978 126.52 244.817 126.234 244.656 125.947L243.784 126.436ZM245.239 129.006C245.727 129.859 246.22 130.71 246.717 131.561L247.581 131.056C247.085 130.208 246.594 129.359 246.107 128.509L245.239 129.006ZM247.216 132.411C247.549 132.978 247.884 133.543 248.221 134.109L249.08 133.597C248.744 133.033 248.41 132.469 248.078 131.904L247.216 132.411ZM249.749 136.648C249.92 136.929 250.091 137.21 250.263 137.491L251.116 136.97C250.945 136.689 250.774 136.409 250.603 136.128L249.749 136.648ZM251.295 139.168C251.813 140.006 252.335 140.841 252.861 141.675L253.707 141.142C253.183 140.31 252.662 139.477 252.145 138.642L251.295 139.168ZM253.388 142.508C253.74 143.063 254.093 143.617 254.448 144.17L255.29 143.629C254.936 143.078 254.583 142.525 254.232 141.972L253.388 142.508ZM256.056 146.651C256.235 146.926 256.415 147.201 256.596 147.475L257.431 146.926C257.251 146.652 257.072 146.378 256.893 146.104L256.056 146.651ZM257.685 149.123C258.231 149.945 258.781 150.764 259.333 151.581L260.161 151.021C259.611 150.206 259.062 149.389 258.517 148.569L257.685 149.123ZM259.886 152.397C260.256 152.941 260.627 153.483 260.998 154.023L261.822 153.457C261.452 152.917 261.082 152.377 260.713 151.835L259.886 152.397ZM262.68 156.448C262.867 156.716 263.055 156.984 263.243 157.252L264.061 156.677C263.874 156.41 263.686 156.143 263.499 155.875L262.68 156.448ZM264.386 158.868C264.959 159.675 265.535 160.479 266.113 161.279L266.924 160.693C266.347 159.895 265.773 159.094 265.201 158.289L264.386 158.868ZM266.692 162.077C267.078 162.609 267.465 163.139 267.854 163.668L268.66 163.076C268.272 162.549 267.886 162.02 267.501 161.49L266.692 162.077ZM269.606 166.034C269.801 166.296 269.996 166.557 270.192 166.818L270.992 166.218C270.797 165.958 270.602 165.697 270.407 165.436L269.606 166.034ZM271.386 168.401C271.987 169.192 272.588 169.979 273.191 170.761L273.983 170.15C273.382 169.37 272.782 168.586 272.183 167.797L271.386 168.401ZM273.795 171.542C274.198 172.061 274.601 172.579 275.005 173.094L275.792 172.477C275.389 171.963 274.987 171.447 274.585 170.929L273.795 171.542ZM276.826 175.399C277.029 175.654 277.232 175.908 277.435 176.161L278.215 175.536C278.013 175.283 277.811 175.03 277.608 174.776L276.826 175.399ZM278.684 177.712C279.311 178.485 279.938 179.254 280.566 180.016L281.338 179.38C280.712 178.62 280.086 177.854 279.461 177.082L278.684 177.712ZM281.195 180.777C281.614 181.283 282.033 181.786 282.453 182.287L283.219 181.645C282.801 181.145 282.383 180.643 281.965 180.139L281.195 180.777ZM284.343 184.523C284.555 184.772 284.768 185.021 284.98 185.269L285.739 184.618C285.527 184.371 285.315 184.123 285.104 183.874L284.343 184.523ZM286.287 186.784C286.94 187.536 287.593 188.283 288.247 189.022L288.996 188.36C288.345 187.623 287.693 186.879 287.042 186.128L286.287 186.784ZM288.9 189.759C289.336 190.249 289.771 190.736 290.206 191.219L290.949 190.55C290.516 190.068 290.082 189.583 289.647 189.095L288.9 189.759ZM292.169 193.379C292.396 193.627 292.624 193.874 292.851 194.12L293.586 193.441C293.359 193.196 293.133 192.95 292.906 192.703L292.169 193.379ZM294.213 195.585C294.894 196.312 295.573 197.03 296.252 197.74L296.974 197.049C296.298 196.342 295.621 195.626 294.943 194.902L294.213 195.585ZM296.929 198.447C297.381 198.917 297.832 199.382 298.283 199.844L298.998 199.145C298.55 198.685 298.1 198.222 297.65 197.754L296.929 198.447ZM300.366 201.954C300.603 202.191 300.84 202.428 301.077 202.663L301.782 201.954C301.546 201.719 301.31 201.484 301.074 201.247L300.366 201.954ZM302.494 204.06C303.202 204.752 303.907 205.433 304.609 206.103L305.299 205.379C304.6 204.712 303.898 204.034 303.193 203.345L302.494 204.06ZM305.311 206.769C305.787 207.219 306.261 207.663 306.734 208.102L307.414 207.369C306.944 206.932 306.471 206.49 305.998 206.042L305.311 206.769ZM308.964 210.143C309.211 210.366 309.457 210.587 309.703 210.806L310.369 210.06C310.124 209.842 309.879 209.622 309.634 209.401L308.964 210.143ZM311.172 212.104C311.907 212.746 312.637 213.375 313.364 213.988L314.009 213.225C313.287 212.615 312.561 211.99 311.83 211.351L311.172 212.104ZM314.149 214.648C314.671 215.084 315.19 215.512 315.708 215.933L316.339 215.157C315.825 214.739 315.308 214.314 314.79 213.88L314.149 214.648ZM318.017 217.774C318.272 217.973 318.526 218.17 318.779 218.364L319.389 217.572C319.137 217.378 318.885 217.183 318.633 216.986L318.017 217.774ZM320.328 219.537C321.159 220.155 321.981 220.751 322.794 221.324L323.37 220.507C322.564 219.939 321.749 219.348 320.926 218.735L320.328 219.537ZM323.605 221.89C324.143 222.261 324.677 222.623 325.207 222.973L325.759 222.139C325.235 221.792 324.706 221.435 324.173 221.067L323.605 221.89ZM327.73 224.581C328.021 224.76 328.31 224.934 328.599 225.106L329.11 224.246C328.825 224.077 328.539 223.905 328.252 223.729L327.73 224.581ZM330.31 226.091C331.189 226.581 332.054 227.036 332.903 227.455L333.345 226.558C332.512 226.147 331.662 225.7 330.797 225.218L330.31 226.091ZM333.839 227.905C334.458 228.195 335.069 228.466 335.671 228.715L336.055 227.792C335.467 227.548 334.87 227.284 334.263 226.999L333.839 227.905ZM338.43 229.738C338.767 229.847 339.1 229.948 339.43 230.042L339.704 229.08C339.386 228.99 339.063 228.892 338.737 228.786L338.43 229.738ZM341.368 230.515C342.411 230.725 343.415 230.852 344.378 230.89L344.418 229.891C343.515 229.855 342.563 229.736 341.566 229.535L341.368 230.515ZM345.397 230.896C346.079 230.877 346.739 230.81 347.374 230.691L347.191 229.708C346.611 229.816 346.003 229.879 345.369 229.897L345.397 230.896ZM350.313 229.681C350.463 229.601 350.612 229.516 350.758 229.428L350.242 228.572C350.111 228.651 349.978 228.726 349.844 228.798L350.313 229.681ZM122.116 206.486C122.289 206.445 122.461 206.404 122.633 206.363L122.4 205.39C122.228 205.432 122.056 205.473 121.884 205.514L122.116 206.486ZM124.68 205.867C125.697 205.619 126.703 205.37 127.698 205.121L127.454 204.151C126.461 204.4 125.458 204.648 124.443 204.896L124.68 205.867ZM128.689 204.871C129.347 204.704 130.001 204.537 130.65 204.369L130.4 203.401C129.753 203.568 129.1 203.735 128.443 203.901L128.689 204.871ZM133.538 203.613C133.856 203.529 134.172 203.445 134.487 203.36L134.228 202.394C133.914 202.479 133.598 202.563 133.282 202.647L133.538 203.613ZM136.363 202.853C137.378 202.576 138.381 202.298 139.372 202.019L139.101 201.056C138.113 201.335 137.113 201.612 136.1 201.888L136.363 202.853ZM140.375 201.735C141.04 201.545 141.7 201.356 142.355 201.165L142.076 200.205C141.423 200.395 140.765 200.584 140.101 200.773L140.375 201.735ZM145.263 200.306C145.582 200.21 145.899 200.114 146.215 200.019L145.925 199.062C145.61 199.157 145.293 199.253 144.975 199.348L145.263 200.306ZM148.095 199.442C149.061 199.142 150.013 198.841 150.953 198.54L150.647 197.588C149.711 197.888 148.762 198.188 147.799 198.486L148.095 199.442ZM151.957 198.215C152.623 197.999 153.283 197.782 153.936 197.564L153.62 196.615C152.969 196.832 152.312 197.049 151.648 197.264L151.957 198.215ZM156.829 196.582C157.146 196.472 157.461 196.363 157.774 196.253L157.443 195.309C157.131 195.418 156.817 195.528 156.502 195.637L156.829 196.582ZM159.634 195.593C160.583 195.251 161.517 194.909 162.436 194.565L162.085 193.629C161.171 193.971 160.241 194.312 159.296 194.652L159.634 195.593ZM163.425 194.192C164.081 193.943 164.729 193.693 165.369 193.443L165.005 192.512C164.368 192.761 163.723 193.009 163.071 193.257L163.425 194.192ZM168.196 192.313C168.504 192.187 168.811 192.061 169.115 191.934L168.732 191.011C168.429 191.136 168.124 191.262 167.818 191.387L168.196 192.313ZM170.918 191.174C171.879 190.763 172.819 190.35 173.74 189.936L173.329 189.024C172.414 189.436 171.48 189.846 170.525 190.255L170.918 191.174ZM174.69 189.504C175.319 189.216 175.938 188.927 176.549 188.638L176.12 187.734C175.514 188.022 174.898 188.309 174.274 188.595L174.69 189.504ZM179.232 187.329C179.523 187.183 179.812 187.036 180.099 186.89L179.644 185.999C179.36 186.145 179.073 186.29 178.784 186.435L179.232 187.329ZM181.922 185.94C182.856 185.443 183.765 184.944 184.649 184.443L184.156 183.573C183.28 184.07 182.379 184.564 181.452 185.057L181.922 185.94ZM185.525 183.94C186.103 183.605 186.67 183.269 187.227 182.931L186.708 182.076C186.157 182.41 185.596 182.743 185.023 183.075L185.525 183.94ZM189.818 181.302C190.111 181.111 190.401 180.919 190.688 180.727L190.131 179.896C189.848 180.086 189.561 180.275 189.271 180.465L189.818 181.302ZM192.368 179.57C193.188 178.99 193.979 178.407 194.741 177.821L194.131 177.028C193.38 177.606 192.6 178.181 191.791 178.754L192.368 179.57ZM195.582 177.164C196.135 176.724 196.672 176.283 197.194 175.841L196.547 175.078C196.034 175.514 195.505 175.948 194.96 176.38L195.582 177.164ZM199.437 173.838C199.678 173.61 199.916 173.382 200.15 173.154L199.452 172.438C199.222 172.663 198.989 172.886 198.751 173.11L199.437 173.838ZM201.627 171.652C202.339 170.898 203.009 170.14 203.64 169.377L202.869 168.739C202.253 169.485 201.597 170.227 200.9 170.966L201.627 171.652ZM204.258 168.612C204.699 168.054 205.118 167.493 205.518 166.93L204.703 166.351C204.313 166.9 203.903 167.447 203.473 167.992L204.258 168.612ZM207.182 164.382C207.357 164.09 207.526 163.797 207.691 163.503L206.818 163.014C206.659 163.3 206.494 163.585 206.324 163.869L207.182 164.382ZM208.654 161.661C209.104 160.734 209.506 159.802 209.862 158.865L208.927 158.509C208.581 159.419 208.191 160.324 207.754 161.224L208.654 161.661ZM210.216 157.888C210.441 157.236 210.644 156.581 210.827 155.924L209.863 155.656C209.686 156.294 209.489 156.929 209.27 157.562L210.216 157.888ZM211.514 152.935C211.575 152.599 211.632 152.261 211.684 151.923L210.695 151.772C210.645 152.101 210.59 152.428 210.53 152.755L211.514 152.935ZM211.935 149.888C212.032 148.873 212.086 147.853 212.101 146.828L211.101 146.813C211.086 147.813 211.033 148.806 210.94 149.793L211.935 149.888ZM212.103 145.804C212.096 145.12 212.072 144.435 212.031 143.747L211.033 143.805C211.072 144.478 211.096 145.148 211.103 145.815L212.103 145.804ZM211.753 140.712C211.711 140.373 211.666 140.034 211.617 139.694L210.627 139.837C210.675 140.17 210.72 140.503 210.761 140.835L211.753 140.712ZM211.288 137.678C211.107 136.686 210.899 135.69 210.666 134.69L209.692 134.918C209.922 135.903 210.126 136.883 210.304 137.857L211.288 137.678ZM210.424 133.689C210.261 133.038 210.089 132.386 209.906 131.732L208.943 132C209.123 132.646 209.293 133.289 209.453 133.931L210.424 133.689ZM209.031 128.803C208.927 128.476 208.821 128.149 208.712 127.821L207.763 128.135C207.87 128.459 207.975 128.783 208.078 129.106L209.031 128.803ZM208.062 125.919C207.727 124.966 207.374 124.01 207.007 123.049L206.073 123.406C206.437 124.359 206.787 125.308 207.119 126.252L208.062 125.919ZM206.638 122.094C206.396 121.473 206.147 120.851 205.893 120.227L204.967 120.603C205.219 121.224 205.466 121.842 205.707 122.458L206.638 122.094ZM204.717 117.408C204.583 117.096 204.449 116.784 204.313 116.471L203.396 116.869C203.531 117.18 203.665 117.491 203.797 117.801L204.717 117.408ZM203.505 114.629C203.095 113.706 202.676 112.78 202.251 111.851L201.341 112.267C201.766 113.193 202.182 114.116 202.591 115.035L203.505 114.629ZM201.825 110.923C201.545 110.316 201.262 109.708 200.977 109.099L200.071 109.522C200.356 110.131 200.637 110.737 200.917 111.342L201.825 110.923ZM199.681 106.347C199.535 106.04 199.39 105.733 199.243 105.426L198.34 105.855C198.486 106.163 198.632 106.469 198.777 106.776L199.681 106.347ZM198.376 103.608C197.942 102.698 197.504 101.785 197.066 100.87L196.164 101.302C196.603 102.218 197.04 103.13 197.474 104.039L198.376 103.608ZM196.628 99.9531C196.338 99.3471 196.048 98.7398 195.757 98.1312L194.855 98.5615C195.145 99.1706 195.435 99.7783 195.725 100.385L196.628 99.9531ZM194.458 95.393C194.314 95.0879 194.17 94.7823 194.026 94.4765L193.121 94.9018C193.265 95.2082 193.409 95.5143 193.554 95.82L194.458 95.393ZM193.17 92.6451C192.745 91.731 192.322 90.8141 191.904 89.8945L190.994 90.3088C191.414 91.2312 191.837 92.1505 192.263 93.0667L193.17 92.6451ZM191.486 88.9739C191.209 88.36 190.934 87.745 190.661 87.1287L189.747 87.5339C190.021 88.1524 190.297 88.7696 190.575 89.3853L191.486 88.9739ZM189.451 84.3542C189.318 84.045 189.187 83.7355 189.056 83.4257L188.135 83.8155C188.266 84.1267 188.399 84.4376 188.532 84.7481L189.451 84.3542ZM188.278 81.5633C187.893 80.6299 187.516 79.6939 187.148 78.7551L186.217 79.1206C186.588 80.0648 186.967 81.0059 187.353 81.9441L188.278 81.5633ZM186.782 77.8155C186.54 77.1885 186.303 76.5603 186.069 75.9309L185.131 76.2789C185.367 76.9124 185.606 77.5445 185.849 78.1754L186.782 77.8155ZM185.046 73.0836C184.935 72.7661 184.826 72.4484 184.719 72.1304L183.771 72.4514C183.88 72.7718 183.99 73.0919 184.101 73.4117L185.046 73.0836ZM184.087 70.2188C183.779 69.2585 183.482 68.2955 183.2 67.33L182.24 67.6112C182.525 68.5854 182.824 69.5565 183.135 70.5247L184.087 70.2188ZM182.921 66.3621C182.738 65.7162 182.561 65.0692 182.391 64.421L181.424 64.675C181.596 65.3295 181.774 65.9827 181.959 66.6345L182.921 66.3621ZM181.669 61.491C181.594 61.1639 181.521 60.8365 181.449 60.5089L180.472 60.7223C180.544 61.0535 180.619 61.3844 180.695 61.715L181.669 61.491ZM181.042 58.5395C180.849 57.5527 180.674 56.5633 180.518 55.5715L179.53 55.7275C179.689 56.7316 179.866 57.7327 180.06 58.7308L181.042 58.5395ZM180.367 54.5779C180.271 53.915 180.183 53.2509 180.104 52.5858L179.111 52.7038C179.191 53.3777 179.28 54.0503 179.377 54.7216L180.367 54.5779ZM179.809 49.5871C179.783 49.2542 179.759 48.9211 179.738 48.5877L178.74 48.6512C178.762 48.9893 178.785 49.3271 178.812 49.6646L179.809 49.5871ZM179.639 46.5837C179.604 45.5803 179.591 44.5744 179.601 43.566L178.601 43.556C178.591 44.5796 178.604 45.6005 178.64 46.6185L179.639 46.5837ZM179.619 42.569C179.636 41.9038 179.663 41.2374 179.701 40.57L178.702 40.5138C178.664 41.1916 178.636 41.8683 178.619 42.5437L179.619 42.569ZM179.942 37.5593C179.96 37.3916 179.978 37.2238 179.997 37.056L179.003 36.944C178.984 37.1145 178.965 37.285 178.948 37.4554L179.942 37.5593Z" fill="#A7727D"/>
</svg>
