<svg width="500" height="500" viewBox="0 0 500 500" fill="none" xmlns="http://www.w3.org/2000/svg">
<path d="M250 500C387.619 500 499.181 388.071 499.181 250C499.181 111.929 387.619 0 250 0C112.382 0 0.819824 111.929 0.819824 250C0.819824 388.071 112.382 500 250 500Z" fill="#F8ECDD"/>
<path d="M401.14 90.5153H68.646V327.105H401.14V90.5153Z" fill="#E6D0BE"/>
<path d="M390.709 296.358L390.709 100.983L79.0781 100.983L79.0781 296.358L390.709 296.358Z" fill="#F8ECDD"/>
<path d="M269.894 332.118H260.05C260.05 339.528 254.064 345.534 246.68 345.534H223.108C215.724 345.534 209.738 339.528 209.738 332.118H199.895L190.051 384.611V389.001H279.737V384.611L269.894 332.118Z" fill="#E6D0BE"/>
<path d="M279.736 395.091H190.05C189.718 395.091 189.449 394.821 189.449 394.488C189.449 394.155 189.718 393.886 190.05 393.886H279.736C280.068 393.886 280.337 394.155 280.337 394.488C280.337 394.821 280.068 395.091 279.736 395.091Z" fill="#E6D0BE"/>
<path d="M314.791 113.657H98.0923V127.363H314.791V113.657Z" fill="#D3BBA3"/>
<path d="M314.79 268.704H98.0912C97.7595 268.704 97.4907 268.434 97.4907 268.101V113.657C97.4907 113.324 97.7595 113.054 98.0912 113.054H314.79C315.122 113.054 315.391 113.324 315.391 113.657V268.101C315.391 268.434 315.122 268.704 314.79 268.704ZM98.6917 267.499H314.19V114.259H98.6917V267.499Z" fill="#D3BBA3"/>
<path d="M305.708 123.722C307.424 123.722 308.815 122.327 308.815 120.605C308.815 118.884 307.424 117.489 305.708 117.489C303.992 117.489 302.602 118.884 302.602 120.605C302.602 122.327 303.992 123.722 305.708 123.722Z" fill="white"/>
<path d="M295.671 123.722C297.386 123.722 298.777 122.327 298.777 120.605C298.777 118.884 297.386 117.489 295.671 117.489C293.955 117.489 292.564 118.884 292.564 120.605C292.564 122.327 293.955 123.722 295.671 123.722Z" fill="white"/>
<path d="M285.634 123.722C287.349 123.722 288.74 122.327 288.74 120.605C288.74 118.884 287.349 117.489 285.634 117.489C283.918 117.489 282.527 118.884 282.527 120.605C282.527 122.327 283.918 123.722 285.634 123.722Z" fill="white"/>
<path d="M111.735 257.158H301.146V145.069L111.735 145.069V257.158Z" fill="#FDFDFC"/>
<path d="M123.962 246.943L292.124 246.943V239.633L123.962 239.633V246.943Z" fill="#E6D0BE"/>
<path d="M182.727 220.015C204.128 219.991 221.458 202.563 221.434 181.088C221.411 159.613 204.043 142.224 182.642 142.247C161.241 142.271 143.912 159.699 143.935 181.174C143.959 202.649 161.327 220.038 182.727 220.015Z" fill="#A7727D"/>
<path d="M181.549 203.051L162.545 185.714L168.416 178.452L180.465 188.114L199.372 160.578L207.064 165.891L181.549 203.051Z" fill="#FDFDFC"/>
<path d="M492.166 370.746H261.56V211.149H492.166V370.746ZM262.761 369.541H490.965V212.354H262.761V369.541Z" fill="#4E4446"/>
<path d="M267.654 349.8H486.072V217.632L267.654 217.632V349.8Z" fill="#D3BBA3"/>
<path d="M484.336 393.225H269.391C261.497 393.225 255.076 386.324 255.076 377.842V377.239H498.65V377.842C498.651 386.324 492.229 393.225 484.336 393.225ZM256.288 378.444C256.581 385.984 262.346 392.02 269.391 392.02H484.336C491.38 392.02 497.145 385.984 497.438 378.444H256.288Z" fill="#4E4446"/>
<path d="M393.374 383.836H360.351C360.02 383.836 359.751 383.567 359.751 383.234C359.751 382.901 360.02 382.631 360.351 382.631H393.374C393.705 382.631 393.974 382.901 393.974 383.234C393.974 383.567 393.705 383.836 393.374 383.836Z" fill="#4E4446"/>
<path d="M375.342 316.947C394.095 316.947 409.297 301.692 409.297 282.874C409.297 264.056 394.095 248.801 375.342 248.801C356.589 248.801 341.387 264.056 341.387 282.874C341.387 301.692 356.589 316.947 375.342 316.947Z" fill="#FDFDFC"/>
<path d="M374.356 302.073L357.704 286.881L362.848 280.518L373.406 288.984L389.974 264.855L396.714 269.511L374.356 302.073Z" fill="#A7727D"/>
<path d="M12.2842 374.757V484.198C12.2842 492.01 35.4321 498.342 63.9862 498.342C92.5404 498.342 115.688 492.01 115.688 484.198V374.757H12.2842Z" fill="#E6D0BE"/>
<path d="M63.9864 498.945C34.658 498.945 11.6841 492.467 11.6841 484.198V374.155H116.289V484.198C116.289 492.467 93.315 498.945 63.9864 498.945ZM12.8848 375.36V484.198C12.8848 491.539 36.2865 497.74 63.9861 497.74C91.6862 497.74 115.088 491.539 115.088 484.198V375.36H12.8848Z" fill="#FDFDFC"/>
<path d="M63.9862 388.879C92.5405 388.879 115.688 382.547 115.688 374.736C115.688 366.924 92.5405 360.592 63.9862 360.592C35.432 360.592 12.2842 366.924 12.2842 374.736C12.2842 382.547 35.432 388.879 63.9862 388.879Z" fill="#FDFDFC"/>
<path d="M63.9871 382.605C86.4766 382.605 104.708 378.608 104.708 373.678C104.708 368.748 86.4766 364.751 63.9871 364.751C41.4975 364.751 23.2661 368.748 23.2661 373.678C23.2661 378.608 41.4975 382.605 63.9871 382.605Z" fill="#F8ECDD"/>
<path d="M63.9864 425.969C34.658 425.969 11.6841 419.492 11.6841 411.223C11.6841 410.89 11.9529 410.62 12.2846 410.62C12.6163 410.62 12.8851 410.89 12.8851 411.223C12.8851 418.563 36.2868 424.764 63.9864 424.764C91.6865 424.764 115.088 418.563 115.088 411.223C115.088 410.89 115.357 410.62 115.689 410.62C116.02 410.62 116.289 410.89 116.289 411.223C116.289 419.492 93.315 425.969 63.9864 425.969Z" fill="#FDFDFC"/>
<path d="M63.9864 462.457C34.658 462.457 11.6841 455.98 11.6841 447.711C11.6841 447.378 11.9529 447.108 12.2846 447.108C12.6163 447.108 12.8851 447.378 12.8851 447.711C12.8851 455.051 36.2868 461.252 63.9864 461.252C91.6865 461.252 115.088 455.051 115.088 447.711C115.088 447.378 115.357 447.108 115.689 447.108C116.02 447.108 116.289 447.378 116.289 447.711C116.289 455.98 93.315 462.457 63.9864 462.457Z" fill="#FDFDFC"/>
<path d="M199.225 414.055L180.253 456.981L255.416 497.201C255.416 497.201 262.767 428.303 199.225 414.055Z" fill="#FDFDFC"/>
<path d="M212.657 447.787L240.539 473.329L262.022 460.603L239.096 428.744L212.657 447.787Z" fill="#E2A18D"/>
<path d="M214.999 499.18H323.2C323.2 499.18 298.521 464.292 255.416 448.22L226.217 462.902C226.217 462.902 218.813 481.401 214.999 499.18Z" fill="#E6D0BE"/>
<path d="M255.689 468.482C255.553 468.482 255.416 468.437 255.304 468.342C255.05 468.129 255.016 467.749 255.229 467.493L266.379 454.117C266.592 453.862 266.971 453.828 267.224 454.042C267.478 454.255 267.513 454.635 267.3 454.89L256.15 468.266C256.031 468.409 255.861 468.482 255.689 468.482Z" fill="#4E4446"/>
<path d="M264.886 472.707C264.75 472.707 264.613 472.661 264.501 472.567C264.247 472.353 264.213 471.973 264.426 471.718L275.576 458.342C275.789 458.087 276.168 458.053 276.422 458.266C276.676 458.479 276.71 458.86 276.497 459.115L265.347 472.491C265.228 472.633 265.058 472.707 264.886 472.707Z" fill="#4E4446"/>
<path d="M191.023 344.001L192.91 417.024C193.155 416.995 236.432 441.034 236.13 438.966C235.93 437.599 238.62 378.069 240.468 337.852C240.72 332.371 239.981 327.047 238.415 322.061L208.545 327.134L191.023 344.001Z" fill="#8B865C"/>
<mask id="mask0_122_116" style="mask-type:luminance" maskUnits="userSpaceOnUse" x="6" y="285" width="234" height="94">
<path d="M239.528 285.485H6.1416V378.125H239.528V285.485Z" fill="white"/>
</mask>
<g mask="url(#mask0_122_116)">
<path d="M203.126 291.011C138.135 279.812 74.8811 301.452 12.931 347.722C12.931 347.722 8.56534 376.854 42.7115 384.863C76.8579 392.872 190.756 333.66 190.756 333.66L191.023 344.001L238.415 322.061C233.464 306.296 220.166 293.948 203.126 291.011Z" fill="#8B865C"/>
</g>
<path d="M122.864 355.442L215.018 456.163L247.309 430.63L195.973 346.654C195.973 346.654 179.302 322.395 157.079 333.66C134.856 344.925 122.864 355.442 122.864 355.442Z" fill="#8B865C"/>
<path d="M136.104 360.063C135.877 360.063 135.659 359.934 135.558 359.713C135.419 359.411 135.551 359.053 135.852 358.914L202.707 327.95C203.008 327.811 203.365 327.942 203.504 328.245C203.643 328.547 203.512 328.905 203.21 329.044L136.355 360.008C136.273 360.045 136.188 360.063 136.104 360.063Z" fill="#4E4446"/>
<path d="M235.379 411.716C235.177 411.716 234.98 411.614 234.867 411.428L193.552 343.66C193.379 343.376 193.468 343.006 193.75 342.832C194.034 342.658 194.403 342.748 194.576 343.032L235.891 410.799C236.064 411.083 235.975 411.454 235.692 411.628C235.594 411.688 235.486 411.716 235.379 411.716Z" fill="#4E4446"/>
<path d="M97.7324 166.052C97.7324 166.052 89.4272 167.241 83.3681 161.397C77.3091 155.554 61.7189 152.014 49.012 161.766C23.7345 181.165 24.795 147.186 2.366 159.172V167.551C4.77202 166.654 8.57808 166.688 13.3109 171.668C20.3013 179.023 24.7568 177.816 26.009 177.237C26.2437 177.116 26.3723 177.039 26.3723 177.039C26.3723 177.039 26.2486 177.127 26.009 177.237C24.3353 178.106 17.2014 181.302 11.6932 175.929C8.16795 172.49 4.83057 172.406 2.36572 173.155V207.378C2.36572 207.378 7.2148 220.47 22.5409 214.925C37.867 209.38 41.8021 191.298 57.6091 198.242C73.4162 205.185 70.0535 206.628 84.8376 199.523C99.622 192.418 97.7324 166.052 97.7324 166.052Z" fill="#4E4446"/>
<path d="M99.1245 211.181C93.0818 212.43 83.9787 197.781 83.9787 197.781L83.3823 178.877C86.8763 170.904 96.1493 167.283 104.095 170.789C112.04 174.295 115.648 183.601 112.154 191.573C112.154 191.573 105.279 209.908 99.1245 211.181Z" fill="#E2A18D"/>
<path d="M67.46 215.21L84.4892 237.367L85.8664 220.679L100.886 186.407L83.4538 178.714L67.46 215.21Z" fill="#E2A18D"/>
<path d="M108.838 194.639C108.838 194.639 111.014 200.662 110.308 201.687C109.466 202.911 104.614 201.743 104.614 201.743C104.614 201.743 108.941 194.697 108.838 194.639Z" fill="#E2A18D"/>
<path d="M96.126 188.293C96.126 188.293 99.1042 188.055 102.007 189.337C102.625 189.61 99.2858 194.055 98.8226 193.516C96.7858 191.143 96.126 188.293 96.126 188.293Z" fill="#FDFDFC"/>
<mask id="mask1_122_116" style="mask-type:luminance" maskUnits="userSpaceOnUse" x="96" y="188" width="13" height="10">
<path d="M96.126 188.293C96.126 188.293 100.506 187.944 103.821 190.378C107.135 192.812 108.129 197.107 108.129 197.107C108.129 197.107 103.749 197.455 100.435 195.021C97.12 192.588 96.126 188.293 96.126 188.293Z" fill="white"/>
</mask>
<g mask="url(#mask1_122_116)">
<path d="M102.186 189.264C104.95 188.184 108.064 189.558 109.139 192.332C110.215 195.106 108.846 198.23 106.081 199.31C103.317 200.389 100.203 199.016 99.1278 196.241C98.0521 193.467 99.4211 190.343 102.186 189.264Z" fill="#4E4446"/>
</g>
<path d="M100.852 203.462C99.9146 203.462 99.0249 202.992 98.5028 202.195C97.9216 201.306 97.8952 200.138 98.4353 199.217C98.6038 198.931 98.9717 198.835 99.2574 199.004C99.5434 199.173 99.6387 199.542 99.4704 199.829C99.1605 200.357 99.1749 201.026 99.5066 201.533C99.8514 202.06 100.479 202.337 101.105 202.237C101.43 202.186 101.74 202.409 101.791 202.738C101.843 203.066 101.62 203.375 101.292 203.427C101.145 203.451 100.998 203.462 100.852 203.462Z" fill="#4E4446"/>
<path d="M94.3535 210.64C94.2386 210.64 94.1226 210.607 94.0199 210.538C88.7806 207.014 83.5794 198.701 83.3605 198.349C83.1851 198.066 83.2711 197.695 83.5522 197.519C83.8338 197.343 84.2036 197.429 84.3795 197.711C84.4318 197.795 89.6643 206.158 94.6882 209.537C94.9638 209.722 95.0373 210.097 94.8527 210.373C94.737 210.546 94.5469 210.64 94.3535 210.64Z" fill="#4E4446"/>
<path d="M76.6063 185.666C74.5777 181.107 80.3747 172.119 86.8627 168.727C95.2272 164.353 101.623 163.233 108.862 167.427C119.793 173.76 117.539 188.989 117.539 188.989C117.539 188.989 106.221 184.226 102.364 182.727C96.9426 180.619 94.0402 198.443 87.8139 188.275C87.1287 187.156 78.5313 209.033 69.1169 203.258C56.2236 195.348 78.7587 190.505 76.6063 185.666Z" fill="#4E4446"/>
<path d="M89.1736 193.67C92.1432 193.647 94.5317 191.213 94.5085 188.233C94.4854 185.253 92.0593 182.856 89.0897 182.88C86.1202 182.903 83.7317 185.337 83.7548 188.317C83.778 191.297 86.2041 193.693 89.1736 193.67Z" fill="#E2A18D"/>
<path d="M27.2365 217.186C25.5121 217.186 23.7417 216.783 22.0764 215.984C19.1304 214.571 16.9365 212.123 16.0571 209.268C15.9594 208.951 16.1369 208.613 16.4536 208.515C16.7704 208.417 17.1064 208.595 17.2047 208.913C17.9852 211.448 19.9498 213.629 22.5946 214.898C25.2381 216.166 28.1627 216.33 30.6191 215.348C34.0904 213.96 36.5297 210.789 38.8883 207.722C39.1454 207.388 39.4014 207.055 39.6576 206.725C42.1987 203.461 45.7164 199.667 50.4045 199.304C52.8892 199.112 55.2394 199.934 57.5161 200.729C59.3696 201.376 61.2865 202.045 63.2056 202.124C65.7508 202.23 68.3463 201.111 70.3177 199.059C72.2894 197.006 73.3062 194.364 73.1066 191.812C73.0807 191.48 73.328 191.19 73.6583 191.164C73.9966 191.139 74.2779 191.386 74.304 191.718C74.5298 194.613 73.3923 197.594 71.1823 199.895C68.9729 202.195 66.0517 203.444 63.1566 203.328C61.0596 203.242 59.058 202.543 57.1218 201.867C54.8623 201.078 52.7286 200.333 50.4974 200.505C46.2774 200.833 42.9937 204.398 40.6042 207.467C40.3496 207.795 40.095 208.126 39.8393 208.458C37.3818 211.653 34.8404 214.957 31.0638 216.467C29.8614 216.948 28.5624 217.186 27.2365 217.186Z" fill="#4E4446"/>
<path d="M35.8455 165.75C31.0438 165.75 26.2178 162.9 24.1833 158.497C24.0438 158.195 24.1746 157.837 24.4755 157.697C24.7742 157.557 25.1329 157.688 25.2726 157.99C27.519 162.851 33.5266 165.618 38.663 164.161C40.6815 163.588 42.4636 162.495 44.35 161.338C45.1958 160.819 46.0706 160.283 46.9616 159.803C55.9659 154.955 67.9137 155.932 76.0166 162.179C76.2797 162.382 76.329 162.76 76.1269 163.024C75.9245 163.288 75.5474 163.337 75.2848 163.135C67.5445 157.167 56.1315 156.233 47.5291 160.865C46.668 161.329 45.8078 161.856 44.9761 162.366C43.1033 163.515 41.1667 164.702 38.9892 165.32C37.9634 165.611 36.9045 165.75 35.8455 165.75Z" fill="#4E4446"/>
<path d="M216.34 289.41H161.114C157.368 289.41 154.331 286.362 154.331 282.602H216.34V289.41Z" fill="#4E4446"/>
<path d="M216.75 289.217L233.477 236.403C234.612 232.82 232.637 228.993 229.067 227.854L210.286 287.155L216.75 289.217Z" fill="#4E4446"/>
<path d="M210.477 280.36C210.416 280.36 210.355 280.351 210.295 280.332C209.979 280.231 209.804 279.893 209.904 279.575L226.343 227.672C226.443 227.355 226.782 227.18 227.097 227.28C227.413 227.381 227.587 227.72 227.487 228.037L211.049 279.94C210.968 280.197 210.731 280.36 210.477 280.36Z" fill="#F8ECDD"/>
<path d="M183.96 269.087C180.305 267.701 166.032 259.505 159.605 263.688C153.132 267.9 150.591 276.04 150.767 283.753C150.789 283.776 150.813 283.8 150.835 283.823C151.777 285.74 153.48 288.465 156.516 290.283C159.977 292.355 161.855 291.264 165.848 292.884C172.588 295.616 173.811 301.601 176.142 300.503C177.741 299.749 177.179 296.231 175.831 293.155C174.446 289.997 172.22 288.537 172.564 288.089C172.943 287.597 175.012 289.373 177.789 291.345C179.079 292.262 181.069 296.956 183.407 296.247C185.27 295.682 184.424 290.285 181.313 286.671C179.112 284.115 175.873 283.616 176.086 283.038C176.246 282.605 178.169 282.95 179.738 283.74C182.326 285.043 184.414 289.824 186.553 289.13C188.648 288.45 187.826 283.749 185.176 280.244C182.941 277.289 179.302 276.906 179.563 276.186C179.746 275.68 181.411 275.514 184.845 276.215C187.71 276.801 192.905 279.784 193.966 276.881C194.858 274.439 189.477 271.178 183.96 269.087Z" fill="#E2A18D"/>
<path d="M89.9087 273.925C81.8021 276.881 76.4099 284.783 76.9644 293.382C77.328 299.02 80.2577 304.761 89.1538 308.011C110.814 315.923 157.782 283.799 157.782 283.799L163.246 262.551C138.543 262.051 112.223 265.788 89.9087 273.925Z" fill="#E2A18D"/>
<path d="M5.03369 352.473L106.303 307.249L91.0194 238.968L94.2721 223.86L54.3436 208.775L47.6743 222.948C47.6743 222.948 14.6515 253.699 5.03369 352.473Z" fill="#FDFDFC"/>
<path d="M53.7382 235.725L75.72 245.86L65.8089 279.838C65.8089 279.838 99.3404 267.824 125.023 262.51L128.763 309.265L40.697 329.503C22.4314 334.289 5.21153 318.779 8.18263 300.16C10.9988 282.511 19.0907 256.7 38.8296 238.145C42.8383 234.377 48.7402 233.42 53.7382 235.725Z" fill="#FDFDFC"/>
<path d="M33.9323 330.986C26.1012 330.986 18.6168 327.542 13.3911 321.265C13.1785 321.009 13.2125 320.629 13.4671 320.416C13.7215 320.203 14.1003 320.237 14.313 320.492C20.7628 328.241 30.8152 331.471 40.5453 328.92L61.0094 324.217C61.3321 324.144 61.6551 324.346 61.7286 324.67C61.8027 324.995 61.6009 325.318 61.2773 325.392L40.8312 330.09C38.5338 330.692 36.2182 330.986 33.9323 330.986Z" fill="#4E4446"/>
<path d="M64.9019 280.802L69.9032 263.656C69.9968 263.336 70.3313 263.153 70.6483 263.247C70.9666 263.34 71.1491 263.675 71.0559 263.994L66.7142 278.879C70.3522 277.601 82.4992 273.398 96.4685 269.263C96.7869 269.169 97.1205 269.351 97.2144 269.67C97.3081 269.989 97.1264 270.324 96.8086 270.418C80.1857 275.338 66.1507 280.355 66.0108 280.405L64.9019 280.802Z" fill="#4E4446"/>
<path d="M72.0886 258.913C72.0265 258.913 71.963 258.903 71.9007 258.882C71.5859 258.778 71.4146 258.438 71.5183 258.122C75.9491 244.626 58.9471 238.28 58.7747 238.217C58.4632 238.104 58.3014 237.759 58.4145 237.446C58.5272 237.133 58.873 236.972 59.1835 237.084C59.3668 237.151 77.4507 243.904 72.6591 258.499C72.5755 258.752 72.3408 258.913 72.0886 258.913Z" fill="#4E4446"/>
<path d="M489.452 493.596H395.814C391.081 493.596 387.243 489.746 387.243 484.997V312.619C387.243 307.869 391.081 304.019 395.814 304.019H489.452C494.186 304.019 498.024 307.87 498.024 312.619V484.997C498.024 489.746 494.186 493.596 489.452 493.596Z" fill="#2D2224"/>
<path d="M394.972 313.819C393.571 313.819 392.436 314.959 392.436 316.364V486.157H490.294C491.695 486.157 492.831 485.018 492.831 483.612V316.364C492.831 314.959 491.695 313.819 490.294 313.819H394.972Z" fill="#FDFDFC"/>
<path d="M453.649 309.728H431.618C431.286 309.728 431.017 309.459 431.017 309.126C431.017 308.793 431.286 308.524 431.618 308.524H453.649C453.981 308.524 454.25 308.793 454.25 309.126C454.25 309.459 453.981 309.728 453.649 309.728Z" fill="#D3BBA3"/>
<path d="M485.424 327.17H399.842V413.048H485.424V327.17Z" fill="url(#paint0_linear_122_116)"/>
<path d="M485.424 416.118H399.842V431.251H485.424V416.118Z" fill="url(#paint1_linear_122_116)"/>
<path d="M407.752 426.237C409.903 426.226 411.637 424.467 411.626 422.309C411.614 420.151 409.861 418.41 407.711 418.422C405.56 418.433 403.826 420.192 403.837 422.35C403.848 424.508 405.601 426.249 407.752 426.237Z" fill="#FDFDFC"/>
<path d="M417.721 426.252C419.872 426.242 421.607 424.483 421.596 422.325C421.585 420.167 419.833 418.426 417.682 418.437C415.532 418.448 413.797 420.206 413.808 422.364C413.818 424.522 415.571 426.263 417.721 426.252Z" fill="#FDFDFC"/>
<path d="M427.757 426.203C429.908 426.192 431.642 424.434 431.631 422.275C431.62 420.117 429.867 418.377 427.717 418.388C425.566 418.399 423.831 420.158 423.843 422.316C423.854 424.474 425.606 426.215 427.757 426.203Z" fill="#FDFDFC"/>
<path d="M485.424 444.922H399.842V470.446H485.424V444.922Z" fill="url(#paint2_linear_122_116)"/>
<path d="M441.914 395.816C455.564 395.816 466.629 384.712 466.629 371.015C466.629 357.318 455.564 346.214 441.914 346.214C428.264 346.214 417.199 357.318 417.199 371.015C417.199 384.712 428.264 395.816 441.914 395.816Z" fill="#FDFDFC"/>
<path d="M441.196 384.989L429.075 373.931L432.82 369.3L440.505 375.463L452.564 357.899L457.47 361.288L441.196 384.989Z" fill="#A7727D"/>
<path d="M457.172 134.048C456.84 134.048 456.571 133.778 456.571 133.446C456.571 133.113 456.84 132.843 457.172 132.843C476.131 132.843 491.555 117.368 491.555 98.3459C491.555 79.324 476.131 63.8486 457.172 63.8486C448.623 63.8486 440.429 67.0175 434.097 72.7716C433.916 72.9363 433.653 72.974 433.434 72.8677C433.213 72.7615 433.08 72.5317 433.095 72.2871C433.185 70.8617 433.23 69.4667 433.23 68.1404C433.23 32.4631 404.3 3.43771 368.74 3.43771C358.089 3.43771 347.536 6.09699 338.219 11.1279C337.926 11.2861 337.562 11.1754 337.406 10.8831C337.249 10.5902 337.358 10.2249 337.65 10.0669C347.141 4.94181 357.892 2.23279 368.74 2.23279C404.962 2.23279 434.432 31.7989 434.432 68.1404C434.432 69.0456 434.411 69.982 434.37 70.9374C440.761 65.5789 448.803 62.6437 457.172 62.6437C476.794 62.6437 492.757 78.6595 492.757 98.3459C492.756 118.032 476.793 134.048 457.172 134.048Z" fill="#D3BBA3"/>
<path d="M457.172 63.2462C448.136 63.2462 439.902 66.6836 433.694 72.3251C433.781 70.941 433.831 69.5467 433.831 68.1404C433.831 32.0735 404.688 2.83524 368.74 2.83524C332.791 2.83524 303.648 32.0735 303.648 68.1404C303.648 75.1462 304.753 81.8921 306.788 88.2183C304.144 87.1757 301.267 86.5972 298.255 86.5972C285.36 86.5972 274.907 97.0844 274.907 110.022C274.907 122.958 285.36 133.446 298.255 133.446C310.153 133.446 350.092 133.446 368.74 133.446C391.232 133.446 439.978 133.446 457.172 133.446C476.493 133.446 492.156 117.731 492.156 98.3459C492.156 78.9609 476.493 63.2462 457.172 63.2462Z" fill="#FDFDFC"/>
<path d="M191.023 81.274C190.691 81.274 190.422 81.0044 190.422 80.6716V78.3822C190.422 78.0495 190.691 77.7798 191.023 77.7798C191.355 77.7798 191.623 78.0495 191.623 78.3822V80.6716C191.623 81.0044 191.354 81.274 191.023 81.274ZM191.023 74.1656C190.691 74.1656 190.422 73.8959 190.422 73.5631V68.7437C190.422 68.4109 190.691 68.1412 191.023 68.1412C191.355 68.1412 191.623 68.4109 191.623 68.7437V73.5631C191.623 73.8956 191.354 74.1656 191.023 74.1656ZM191.023 64.527C190.691 64.527 190.422 64.2574 190.422 63.9246V59.1052C190.422 58.7724 190.691 58.5027 191.023 58.5027C191.355 58.5027 191.623 58.7724 191.623 59.1052V63.9246C191.623 64.2571 191.354 64.527 191.023 64.527ZM191.023 54.8882C190.691 54.8882 190.422 54.6186 190.422 54.2858V49.4664C190.422 49.1336 190.691 48.8639 191.023 48.8639C191.355 48.8639 191.623 49.1336 191.623 49.4664V54.2858C191.623 54.6186 191.354 54.8882 191.023 54.8882ZM191.023 45.2497C190.691 45.2497 190.422 44.98 190.422 44.6473V41.9123C190.422 41.5795 190.691 41.3098 191.023 41.3098H193.1C193.432 41.3098 193.701 41.5795 193.701 41.9123C193.701 42.2451 193.432 42.5147 193.1 42.5147H191.623V44.6473C191.623 44.98 191.354 45.2497 191.023 45.2497ZM298.777 42.5147H293.973C293.642 42.5147 293.373 42.2451 293.373 41.9123C293.373 41.5795 293.642 41.3098 293.973 41.3098H298.777C299.109 41.3098 299.377 41.5795 299.377 41.9123C299.377 42.2451 299.108 42.5147 298.777 42.5147ZM289.17 42.5147H284.366C284.034 42.5147 283.766 42.2451 283.766 41.9123C283.766 41.5795 284.034 41.3098 284.366 41.3098H289.17C289.501 41.3098 289.77 41.5795 289.77 41.9123C289.77 42.2451 289.501 42.5147 289.17 42.5147ZM279.563 42.5147H274.759C274.427 42.5147 274.159 42.2451 274.159 41.9123C274.159 41.5795 274.427 41.3098 274.759 41.3098H279.563C279.894 41.3098 280.163 41.5795 280.163 41.9123C280.163 42.2451 279.894 42.5147 279.563 42.5147ZM269.956 42.5147H265.152C264.821 42.5147 264.552 42.2451 264.552 41.9123C264.552 41.5795 264.821 41.3098 265.152 41.3098H269.956C270.288 41.3098 270.556 41.5795 270.556 41.9123C270.556 42.2451 270.288 42.5147 269.956 42.5147ZM260.349 42.5147H255.545C255.214 42.5147 254.945 42.2451 254.945 41.9123C254.945 41.5795 255.214 41.3098 255.545 41.3098H260.349C260.681 41.3098 260.949 41.5795 260.949 41.9123C260.949 42.2451 260.681 42.5147 260.349 42.5147ZM250.742 42.5147H245.938C245.607 42.5147 245.338 42.2451 245.338 41.9123C245.338 41.5795 245.607 41.3098 245.938 41.3098H250.742C251.074 41.3098 251.342 41.5795 251.342 41.9123C251.342 42.2451 251.074 42.5147 250.742 42.5147ZM241.135 42.5147H236.331C236 42.5147 235.731 42.2451 235.731 41.9123C235.731 41.5795 236 41.3098 236.331 41.3098H241.135C241.467 41.3098 241.736 41.5795 241.736 41.9123C241.736 42.2451 241.466 42.5147 241.135 42.5147ZM231.528 42.5147H226.725C226.393 42.5147 226.124 42.2451 226.124 41.9123C226.124 41.5795 226.393 41.3098 226.725 41.3098H231.528C231.86 41.3098 232.129 41.5795 232.129 41.9123C232.129 42.2451 231.86 42.5147 231.528 42.5147ZM221.921 42.5147H217.118C216.786 42.5147 216.517 42.2451 216.517 41.9123C216.517 41.5795 216.786 41.3098 217.118 41.3098H221.921C222.253 41.3098 222.522 41.5795 222.522 41.9123C222.521 42.2451 222.253 42.5147 221.921 42.5147ZM212.314 42.5147H207.511C207.179 42.5147 206.91 42.2451 206.91 41.9123C206.91 41.5795 207.179 41.3098 207.511 41.3098H212.314C212.646 41.3098 212.915 41.5795 212.915 41.9123C212.914 42.2451 212.646 42.5147 212.314 42.5147ZM202.707 42.5147H197.904C197.572 42.5147 197.303 42.2451 197.303 41.9123C197.303 41.5795 197.572 41.3098 197.904 41.3098H202.707C203.039 41.3098 203.308 41.5795 203.308 41.9123C203.308 42.2451 203.039 42.5147 202.707 42.5147Z" fill="#A7727D"/>
<path d="M360.351 200.125C360.019 200.125 359.75 199.856 359.75 199.523V198.18C359.75 197.847 360.019 197.577 360.351 197.577C360.683 197.577 360.951 197.847 360.951 198.18V199.523C360.951 199.856 360.683 200.125 360.351 200.125ZM360.351 193.963C360.019 193.963 359.75 193.693 359.75 193.361V188.541C359.75 188.208 360.019 187.939 360.351 187.939C360.683 187.939 360.951 188.208 360.951 188.541V193.361C360.951 193.693 360.683 193.963 360.351 193.963ZM360.351 184.325C360.019 184.325 359.75 184.055 359.75 183.722V178.903C359.75 178.57 360.019 178.3 360.351 178.3C360.683 178.3 360.951 178.57 360.951 178.903V183.722C360.951 184.055 360.683 184.325 360.351 184.325ZM360.351 174.686C360.019 174.686 359.75 174.416 359.75 174.084V169.264C359.75 168.931 360.019 168.662 360.351 168.662C360.683 168.662 360.951 168.931 360.951 169.264V174.084C360.951 174.416 360.683 174.686 360.351 174.686ZM360.351 165.048C360.019 165.048 359.75 164.778 359.75 164.445V159.626C359.75 159.293 360.019 159.023 360.351 159.023C360.683 159.023 360.951 159.293 360.951 159.626V164.445C360.951 164.778 360.683 165.048 360.351 165.048ZM360.351 155.409C360.019 155.409 359.75 155.139 359.75 154.807V149.987C359.75 149.654 360.019 149.385 360.351 149.385C360.683 149.385 360.951 149.654 360.951 149.987V154.807C360.951 155.139 360.683 155.409 360.351 155.409ZM360.351 145.771C360.019 145.771 359.75 145.501 359.75 145.168V140.349C359.75 140.016 360.019 139.746 360.351 139.746C360.683 139.746 360.951 140.016 360.951 140.349V145.168C360.951 145.501 360.683 145.771 360.351 145.771Z" fill="#A7727D"/>
<path d="M442.633 296.961C442.302 296.961 442.033 296.691 442.033 296.358V294.566C442.033 294.233 442.302 293.963 442.633 293.963C442.965 293.963 443.234 294.233 443.234 294.566V296.358C443.234 296.691 442.965 296.961 442.633 296.961ZM442.633 290.349C442.302 290.349 442.033 290.079 442.033 289.746V284.927C442.033 284.594 442.302 284.324 442.633 284.324C442.965 284.324 443.234 284.594 443.234 284.927V289.746C443.234 290.079 442.965 290.349 442.633 290.349ZM442.633 280.71C442.302 280.71 442.033 280.44 442.033 280.108V275.288C442.033 274.955 442.302 274.686 442.633 274.686C442.965 274.686 443.234 274.955 443.234 275.288V280.108C443.234 280.44 442.965 280.71 442.633 280.71ZM442.633 271.072C442.302 271.072 442.033 270.802 442.033 270.469V265.65C442.033 265.317 442.302 265.047 442.633 265.047C442.965 265.047 443.234 265.317 443.234 265.65V270.469C443.234 270.802 442.965 271.072 442.633 271.072ZM442.633 261.433C442.302 261.433 442.033 261.163 442.033 260.831V256.011C442.033 255.678 442.302 255.409 442.633 255.409C442.965 255.409 443.234 255.678 443.234 256.011V260.831C443.234 261.163 442.965 261.433 442.633 261.433ZM442.633 251.795C442.302 251.795 442.033 251.525 442.033 251.192V246.373C442.033 246.04 442.302 245.77 442.633 245.77C442.965 245.77 443.234 246.04 443.234 246.373V251.192C443.234 251.525 442.965 251.795 442.633 251.795ZM442.633 242.156C442.302 242.156 442.033 241.886 442.033 241.554V236.734C442.033 236.401 442.302 236.132 442.633 236.132C442.965 236.132 443.234 236.401 443.234 236.734V241.554C443.234 241.886 442.965 242.156 442.633 242.156ZM442.633 232.518C442.302 232.518 442.033 232.248 442.033 231.915V227.096C442.033 226.763 442.302 226.493 442.633 226.493C442.965 226.493 443.234 226.763 443.234 227.096V231.915C443.234 232.248 442.965 232.518 442.633 232.518ZM442.633 222.879C442.302 222.879 442.033 222.609 442.033 222.277V217.457C442.033 217.124 442.302 216.855 442.633 216.855C442.965 216.855 443.234 217.124 443.234 217.457V222.277C443.234 222.609 442.965 222.879 442.633 222.879ZM442.633 213.24C442.302 213.24 442.033 212.971 442.033 212.638V207.818C442.033 207.486 442.302 207.216 442.633 207.216C442.965 207.216 443.234 207.486 443.234 207.818V212.638C443.234 212.971 442.965 213.24 442.633 213.24ZM442.633 203.602C442.302 203.602 442.033 203.332 442.033 202.999V198.18C442.033 197.847 442.302 197.577 442.633 197.577C442.965 197.577 443.234 197.847 443.234 198.18V202.999C443.234 203.332 442.965 203.602 442.633 203.602ZM442.633 193.963C442.302 193.963 442.033 193.693 442.033 193.361V188.541C442.033 188.208 442.302 187.939 442.633 187.939C442.965 187.939 443.234 188.208 443.234 188.541V193.361C443.234 193.693 442.965 193.963 442.633 193.963ZM442.633 184.325C442.302 184.325 442.033 184.055 442.033 183.722V178.903C442.033 178.57 442.302 178.3 442.633 178.3C442.965 178.3 443.234 178.57 443.234 178.903V183.722C443.234 184.055 442.965 184.325 442.633 184.325ZM442.633 174.686C442.302 174.686 442.033 174.416 442.033 174.084V169.264C442.033 168.931 442.302 168.662 442.633 168.662C442.965 168.662 443.234 168.931 443.234 169.264V174.084C443.234 174.416 442.965 174.686 442.633 174.686ZM442.633 165.048C442.302 165.048 442.033 164.778 442.033 164.445V159.626C442.033 159.293 442.302 159.023 442.633 159.023C442.965 159.023 443.234 159.293 443.234 159.626V164.445C443.234 164.778 442.965 165.048 442.633 165.048ZM442.633 155.409C442.302 155.409 442.033 155.139 442.033 154.807V149.987C442.033 149.654 442.302 149.385 442.633 149.385C442.965 149.385 443.234 149.654 443.234 149.987V154.807C443.234 155.139 442.965 155.409 442.633 155.409ZM442.633 145.771C442.302 145.771 442.033 145.501 442.033 145.168V140.349C442.033 140.016 442.302 139.746 442.633 139.746C442.965 139.746 443.234 140.016 443.234 140.349V145.168C443.234 145.501 442.965 145.771 442.633 145.771Z" fill="#A7727D"/>
<defs>
<linearGradient id="paint0_linear_122_116" x1="393.423" y1="337.046" x2="517.097" y2="402.68" gradientUnits="userSpaceOnUse">
<stop offset="0.0903035" stop-color="#A7727D"/>
<stop offset="0.838506" stop-color="#EDDBC7"/>
</linearGradient>
<linearGradient id="paint1_linear_122_116" x1="393.423" y1="417.859" x2="409.162" y2="465.261" gradientUnits="userSpaceOnUse">
<stop offset="0.0903035" stop-color="#A7727D"/>
<stop offset="0.838506" stop-color="#EDDBC7"/>
</linearGradient>
<linearGradient id="paint2_linear_122_116" x1="393.423" y1="447.857" x2="431.266" y2="515.431" gradientUnits="userSpaceOnUse">
<stop offset="0.0903035" stop-color="#A7727D"/>
<stop offset="0.838506" stop-color="#EDDBC7"/>
</linearGradient>
</defs>
</svg>
